<svg width="1000" height="1000" viewBox="0 0 1000 1000" fill="none" xmlns="http://www.w3.org/2000/svg">
<g clip-path="url(#clip0_1941_2)">
<rect width="1000" height="1000" rx="20" fill="#1A1A1A"/>
<path opacity="0.84" d="M1014.54 987.488L921.81 894.758" stroke="#FF0066" stroke-opacity="0.3" stroke-width="3.5"/>
<path opacity="0.76" d="M921.811 987.488L829.081 894.758" stroke="#FF0066" stroke-opacity="0.3" stroke-width="3.5"/>
<path opacity="0.69" d="M829.08 987.488L736.35 894.758" stroke="#FF0066" stroke-opacity="0.3" stroke-width="3.5"/>
<path opacity="0.61" d="M736.351 987.488L643.621 894.758" stroke="#FF0066" stroke-opacity="0.3" stroke-width="3.5"/>
<path opacity="0.53" d="M550.89 987.488L643.62 894.758" stroke="#FF0066" stroke-opacity="0.3" stroke-width="3.5"/>
<path opacity="0.45" d="M550.891 987.488L458.161 894.758" stroke="#FF0066" stroke-opacity="0.3" stroke-width="3.5"/>
<path opacity="0.37" d="M458.16 987.488L365.43 894.758" stroke="#FF0066" stroke-opacity="0.3" stroke-width="3.5"/>
<path opacity="0.29" d="M365.431 987.488L272.701 894.758" stroke="#FF0066" stroke-opacity="0.3" stroke-width="3.5"/>
<path opacity="0.22" d="M179.97 987.488L272.7 894.758" stroke="#FF0066" stroke-opacity="0.3" stroke-width="3.5"/>
<path opacity="0.14" d="M87.2408 987.488L179.971 894.758" stroke="#FF0066" stroke-opacity="0.3" stroke-width="3.5"/>
<path opacity="0.06" d="M-5.4897 987.488L87.2402 894.758" stroke="#FF0066" stroke-opacity="0.3" stroke-width="3.5"/>
<path opacity="0.84" d="M921.81 894.758L1014.54 802.028" stroke="#FF0066" stroke-opacity="0.3" stroke-width="3.5"/>
<path opacity="0.76" d="M921.811 894.758L829.081 802.028" stroke="#FF0066" stroke-opacity="0.3" stroke-width="3.5"/>
<path opacity="0.69" d="M736.35 894.758L829.08 802.028" stroke="#FF0066" stroke-opacity="0.3" stroke-width="3.5"/>
<path opacity="0.61" d="M736.35 894.758L643.62 802.028" stroke="#FF0066" stroke-opacity="0.3" stroke-width="3.5"/>
<path opacity="0.53" d="M550.89 894.758L643.62 802.028" stroke="#FF0066" stroke-opacity="0.3" stroke-width="3.5"/>
<path opacity="0.45" d="M550.891 894.758L458.161 802.028" stroke="#FF0066" stroke-opacity="0.3" stroke-width="3.5"/>
<path opacity="0.37" d="M458.16 894.758L365.43 802.028" stroke="#FF0066" stroke-opacity="0.3" stroke-width="3.5"/>
<path opacity="0.29" d="M365.431 894.758L272.701 802.028" stroke="#FF0066" stroke-opacity="0.3" stroke-width="3.5"/>
<path opacity="0.22" d="M272.7 894.758L179.97 802.028" stroke="#FF0066" stroke-opacity="0.3" stroke-width="3.5"/>
<path opacity="0.14" d="M179.971 894.758L87.2408 802.028" stroke="#FF0066" stroke-opacity="0.3" stroke-width="3.5"/>
<path opacity="0.06" d="M-5.4897 894.758L87.2402 802.028" stroke="#FF0066" stroke-opacity="0.3" stroke-width="3.5"/>
<path opacity="0.84" d="M1014.54 802.028L921.81 709.298" stroke="#FF0066" stroke-opacity="0.3" stroke-width="3.5"/>
<path opacity="0.76" d="M829.081 802.028L921.811 709.298" stroke="#FF0066" stroke-opacity="0.3" stroke-width="3.5"/>
<path opacity="0.69" d="M829.08 802.028L736.35 709.298" stroke="#FF0066" stroke-opacity="0.3" stroke-width="3.5"/>
<path opacity="0.61" d="M736.35 802.028L643.62 709.298" stroke="#FF0066" stroke-opacity="0.3" stroke-width="3.5"/>
<path opacity="0.53" d="M643.62 802.028L550.89 709.298" stroke="#FF0066" stroke-opacity="0.3" stroke-width="3.5"/>
<path opacity="0.45" d="M550.891 802.028L458.161 709.298" stroke="#FF0066" stroke-opacity="0.3" stroke-width="3.5"/>
<path opacity="0.37" d="M458.16 802.028L365.43 709.298" stroke="#FF0066" stroke-opacity="0.3" stroke-width="3.5"/>
<path opacity="0.29" d="M365.431 802.028L272.701 709.298" stroke="#FF0066" stroke-opacity="0.3" stroke-width="3.5"/>
<path opacity="0.22" d="M179.97 802.028L272.7 709.298" stroke="#FF0066" stroke-opacity="0.3" stroke-width="3.5"/>
<path opacity="0.14" d="M179.971 802.028L87.2408 709.298" stroke="#FF0066" stroke-opacity="0.3" stroke-width="3.5"/>
<path opacity="0.06" d="M87.2402 802.028L-5.4897 709.298" stroke="#FF0066" stroke-opacity="0.3" stroke-width="3.5"/>
<path opacity="0.84" d="M1014.54 709.299L921.81 616.569" stroke="#FF0066" stroke-opacity="0.3" stroke-width="3.5"/>
<path opacity="0.76" d="M829.081 709.299L921.811 616.569" stroke="#FF0066" stroke-opacity="0.3" stroke-width="3.5"/>
<path opacity="0.69" d="M829.08 709.299L736.35 616.569" stroke="#FF0066" stroke-opacity="0.3" stroke-width="3.5"/>
<path opacity="0.61" d="M643.62 709.299L736.35 616.569" stroke="#FF0066" stroke-opacity="0.3" stroke-width="3.5"/>
<path opacity="0.53" d="M550.89 709.299L643.62 616.569" stroke="#FF0066" stroke-opacity="0.3" stroke-width="3.5"/>
<path opacity="0.45" d="M550.891 709.299L458.161 616.569" stroke="#FF0066" stroke-opacity="0.3" stroke-width="3.5"/>
<path opacity="0.37" d="M458.16 709.299L365.43 616.569" stroke="#FF0066" stroke-opacity="0.3" stroke-width="3.5"/>
<path opacity="0.29" d="M272.701 709.299L365.431 616.569" stroke="#FF0066" stroke-opacity="0.3" stroke-width="3.5"/>
<path opacity="0.22" d="M272.7 709.299L179.97 616.569" stroke="#FF0066" stroke-opacity="0.3" stroke-width="3.5"/>
<path opacity="0.14" d="M179.971 709.299L87.2408 616.569" stroke="#FF0066" stroke-opacity="0.3" stroke-width="3.5"/>
<path opacity="0.06" d="M87.2402 709.299L-5.4897 616.569" stroke="#FF0066" stroke-opacity="0.3" stroke-width="3.5"/>
<path opacity="0.84" d="M921.81 616.568L1014.54 523.838" stroke="#FF0066" stroke-opacity="0.3" stroke-width="3.5"/>
<path opacity="0.76" d="M921.811 616.568L829.081 523.838" stroke="#FF0066" stroke-opacity="0.3" stroke-width="3.5"/>
<path opacity="0.69" d="M736.35 616.568L829.08 523.838" stroke="#FF0066" stroke-opacity="0.3" stroke-width="3.5"/>
<path opacity="0.61" d="M643.621 616.568L736.351 523.838" stroke="#FF0066" stroke-opacity="0.3" stroke-width="3.5"/>
<path opacity="0.53" d="M550.89 616.568L643.62 523.838" stroke="#FF0066" stroke-opacity="0.3" stroke-width="3.5"/>
<path opacity="0.45" d="M550.891 616.568L458.161 523.838" stroke="#FF0066" stroke-opacity="0.3" stroke-width="3.5"/>
<path opacity="0.37" d="M365.43 616.568L458.16 523.838" stroke="#FF0066" stroke-opacity="0.3" stroke-width="3.5"/>
<path opacity="0.29" d="M365.431 616.568L272.701 523.838" stroke="#FF0066" stroke-opacity="0.3" stroke-width="3.5"/>
<path opacity="0.22" d="M179.97 616.568L272.7 523.838" stroke="#FF0066" stroke-opacity="0.3" stroke-width="3.5"/>
<path opacity="0.14" d="M179.971 616.568L87.2408 523.838" stroke="#FF0066" stroke-opacity="0.3" stroke-width="3.5"/>
<path opacity="0.06" d="M-5.4897 616.568L87.2402 523.838" stroke="#FF0066" stroke-opacity="0.3" stroke-width="3.5"/>
<path opacity="0.84" d="M1014.54 523.838L921.81 431.108" stroke="#FF0066" stroke-opacity="0.3" stroke-width="3.5"/>
<path opacity="0.76" d="M921.811 523.838L829.081 431.108" stroke="#FF0066" stroke-opacity="0.3" stroke-width="3.5"/>
<path opacity="0.69" d="M736.35 523.838L829.08 431.108" stroke="#FF0066" stroke-opacity="0.3" stroke-width="3.5"/>
<path opacity="0.61" d="M736.35 523.838L643.62 431.108" stroke="#FF0066" stroke-opacity="0.3" stroke-width="3.5"/>
<path opacity="0.53" d="M643.62 523.838L550.89 431.108" stroke="#FF0066" stroke-opacity="0.3" stroke-width="3.5"/>
<path opacity="0.45" d="M550.891 523.838L458.161 431.108" stroke="#FF0066" stroke-opacity="0.3" stroke-width="3.5"/>
<path opacity="0.37" d="M458.16 523.838L365.43 431.108" stroke="#FF0066" stroke-opacity="0.3" stroke-width="3.5"/>
<path opacity="0.29" d="M272.701 523.838L365.431 431.108" stroke="#FF0066" stroke-opacity="0.3" stroke-width="3.5"/>
<path opacity="0.22" d="M272.7 523.838L179.97 431.108" stroke="#FF0066" stroke-opacity="0.3" stroke-width="3.5"/>
<path opacity="0.14" d="M179.971 523.838L87.2408 431.108" stroke="#FF0066" stroke-opacity="0.3" stroke-width="3.5"/>
<path opacity="0.06" d="M87.2402 523.838L-5.4897 431.108" stroke="#FF0066" stroke-opacity="0.3" stroke-width="3.5"/>
<path opacity="0.84" d="M921.81 431.108L1014.54 338.378" stroke="#FF0066" stroke-opacity="0.3" stroke-width="3.5"/>
<path opacity="0.76" d="M829.081 431.108L921.811 338.378" stroke="#FF0066" stroke-opacity="0.3" stroke-width="3.5"/>
<path opacity="0.69" d="M829.08 431.108L736.35 338.378" stroke="#FF0066" stroke-opacity="0.3" stroke-width="3.5"/>
<path opacity="0.61" d="M736.35 431.108L643.62 338.378" stroke="#FF0066" stroke-opacity="0.3" stroke-width="3.5"/>
<path opacity="0.53" d="M550.89 431.108L643.62 338.378" stroke="#FF0066" stroke-opacity="0.3" stroke-width="3.5"/>
<path opacity="0.45" d="M550.891 431.108L458.161 338.378" stroke="#FF0066" stroke-opacity="0.3" stroke-width="3.5"/>
<path opacity="0.37" d="M458.16 431.108L365.43 338.378" stroke="#FF0066" stroke-opacity="0.3" stroke-width="3.5"/>
<path opacity="0.29" d="M365.431 431.108L272.701 338.378" stroke="#FF0066" stroke-opacity="0.3" stroke-width="3.5"/>
<path opacity="0.22" d="M179.97 431.108L272.7 338.378" stroke="#FF0066" stroke-opacity="0.3" stroke-width="3.5"/>
<path opacity="0.14" d="M179.971 431.108L87.2408 338.378" stroke="#FF0066" stroke-opacity="0.3" stroke-width="3.5"/>
<path opacity="0.06" d="M-5.4897 431.108L87.2402 338.378" stroke="#FF0066" stroke-opacity="0.3" stroke-width="3.5"/>
<path opacity="0.84" d="M921.81 338.38L1014.54 245.65" stroke="#FF0066" stroke-opacity="0.3" stroke-width="3.5"/>
<path opacity="0.76" d="M921.811 338.38L829.081 245.65" stroke="#FF0066" stroke-opacity="0.3" stroke-width="3.5"/>
<path opacity="0.69" d="M829.08 338.38L736.35 245.65" stroke="#FF0066" stroke-opacity="0.3" stroke-width="3.5"/>
<path opacity="0.61" d="M736.35 338.38L643.62 245.65" stroke="#FF0066" stroke-opacity="0.3" stroke-width="3.5"/>
<path opacity="0.53" d="M550.89 338.38L643.62 245.65" stroke="#FF0066" stroke-opacity="0.3" stroke-width="3.5"/>
<path opacity="0.45" d="M550.891 338.38L458.161 245.65" stroke="#FF0066" stroke-opacity="0.3" stroke-width="3.5"/>
<path opacity="0.37" d="M458.16 338.38L365.43 245.65" stroke="#FF0066" stroke-opacity="0.3" stroke-width="3.5"/>
<path opacity="0.29" d="M365.431 338.38L272.701 245.65" stroke="#FF0066" stroke-opacity="0.3" stroke-width="3.5"/>
<path opacity="0.22" d="M179.97 338.38L272.7 245.65" stroke="#FF0066" stroke-opacity="0.3" stroke-width="3.5"/>
<path opacity="0.14" d="M87.2408 338.38L179.971 245.65" stroke="#FF0066" stroke-opacity="0.3" stroke-width="3.5"/>
<path opacity="0.06" d="M-5.4897 338.38L87.2402 245.65" stroke="#FF0066" stroke-opacity="0.3" stroke-width="3.5"/>
<path opacity="0.84" d="M921.81 245.649L1014.54 152.919" stroke="#FF0066" stroke-opacity="0.3" stroke-width="3.5"/>
<path opacity="0.76" d="M829.081 245.649L921.811 152.919" stroke="#FF0066" stroke-opacity="0.3" stroke-width="3.5"/>
<path opacity="0.69" d="M829.08 245.649L736.35 152.919" stroke="#FF0066" stroke-opacity="0.3" stroke-width="3.5"/>
<path opacity="0.61" d="M736.351 245.649L643.621 152.919" stroke="#FF0066" stroke-opacity="0.3" stroke-width="3.5"/>
<path opacity="0.53" d="M550.89 245.649L643.62 152.919" stroke="#FF0066" stroke-opacity="0.3" stroke-width="3.5"/>
<path opacity="0.45" d="M550.891 245.649L458.161 152.919" stroke="#FF0066" stroke-opacity="0.3" stroke-width="3.5"/>
<path opacity="0.37" d="M458.16 245.649L365.43 152.919" stroke="#FF0066" stroke-opacity="0.3" stroke-width="3.5"/>
<path opacity="0.29" d="M365.431 245.649L272.701 152.919" stroke="#FF0066" stroke-opacity="0.3" stroke-width="3.5"/>
<path opacity="0.22" d="M272.7 245.649L179.97 152.919" stroke="#FF0066" stroke-opacity="0.3" stroke-width="3.5"/>
<path opacity="0.14" d="M179.971 245.649L87.2408 152.919" stroke="#FF0066" stroke-opacity="0.3" stroke-width="3.5"/>
<path opacity="0.06" d="M-5.4897 245.649L87.2402 152.919" stroke="#FF0066" stroke-opacity="0.3" stroke-width="3.5"/>
<path opacity="0.84" d="M921.81 152.919L1014.54 60.189" stroke="#FF0066" stroke-opacity="0.3" stroke-width="3.5"/>
<path opacity="0.76" d="M921.811 152.919L829.081 60.189" stroke="#FF0066" stroke-opacity="0.3" stroke-width="3.5"/>
<path opacity="0.69" d="M829.08 152.919L736.35 60.189" stroke="#FF0066" stroke-opacity="0.3" stroke-width="3.5"/>
<path opacity="0.61" d="M643.621 152.919L736.351 60.189" stroke="#FF0066" stroke-opacity="0.3" stroke-width="3.5"/>
<path opacity="0.53" d="M550.89 152.919L643.62 60.189" stroke="#FF0066" stroke-opacity="0.3" stroke-width="3.5"/>
<path opacity="0.45" d="M550.891 152.919L458.161 60.189" stroke="#FF0066" stroke-opacity="0.3" stroke-width="3.5"/>
<path opacity="0.37" d="M458.16 152.919L365.43 60.189" stroke="#FF0066" stroke-opacity="0.3" stroke-width="3.5"/>
<path opacity="0.29" d="M272.701 152.919L365.431 60.189" stroke="#FF0066" stroke-opacity="0.3" stroke-width="3.5"/>
<path opacity="0.22" d="M179.97 152.919L272.7 60.189" stroke="#FF0066" stroke-opacity="0.3" stroke-width="3.5"/>
<path opacity="0.14" d="M179.971 152.919L87.2408 60.189" stroke="#FF0066" stroke-opacity="0.3" stroke-width="3.5"/>
<path opacity="0.06" d="M-5.4897 152.919L87.2402 60.189" stroke="#FF0066" stroke-opacity="0.3" stroke-width="3.5"/>
<path opacity="0.84" d="M921.81 60.1885L1014.54 -32.5415" stroke="#FF0066" stroke-opacity="0.3" stroke-width="3.5"/>
<path opacity="0.76" d="M921.811 60.1885L829.081 -32.5415" stroke="#FF0066" stroke-opacity="0.3" stroke-width="3.5"/>
<path opacity="0.69" d="M829.08 60.1885L736.35 -32.5415" stroke="#FF0066" stroke-opacity="0.3" stroke-width="3.5"/>
<path opacity="0.61" d="M736.35 60.1885L643.62 -32.5415" stroke="#FF0066" stroke-opacity="0.3" stroke-width="3.5"/>
<path opacity="0.53" d="M550.89 60.1885L643.62 -32.5415" stroke="#FF0066" stroke-opacity="0.3" stroke-width="3.5"/>
<path opacity="0.45" d="M550.891 60.1885L458.161 -32.5415" stroke="#FF0066" stroke-opacity="0.3" stroke-width="3.5"/>
<path opacity="0.37" d="M458.16 60.1885L365.43 -32.5415" stroke="#FF0066" stroke-opacity="0.3" stroke-width="3.5"/>
<path opacity="0.29" d="M365.431 60.1885L272.701 -32.5415" stroke="#FF0066" stroke-opacity="0.3" stroke-width="3.5"/>
<path opacity="0.22" d="M272.7 60.1885L179.97 -32.5415" stroke="#FF0066" stroke-opacity="0.3" stroke-width="3.5"/>
<path opacity="0.14" d="M179.971 60.1885L87.2408 -32.5415" stroke="#FF0066" stroke-opacity="0.3" stroke-width="3.5"/>
<path opacity="0.06" d="M87.2402 60.1885L-5.4897 -32.5415" stroke="#FF0066" stroke-opacity="0.3" stroke-width="3.5"/>
<path d="M184.15 862V837.55H188.1V862H184.15ZM186.15 833.75C185.283 833.75 184.55 833.467 183.95 832.9C183.383 832.333 183.1 831.617 183.1 830.75C183.1 829.85 183.383 829.117 183.95 828.55C184.55 827.983 185.283 827.7 186.15 827.7C187.017 827.7 187.733 827.983 188.3 828.55C188.867 829.117 189.15 829.85 189.15 830.75C189.15 831.617 188.867 832.333 188.3 832.9C187.733 833.467 187.017 833.75 186.15 833.75ZM196.406 862V837.55H200.256V841.7H200.956C201.489 840.533 202.389 839.483 203.656 838.55C204.956 837.583 206.856 837.1 209.356 837.1C211.189 837.1 212.823 837.483 214.256 838.25C215.723 839.017 216.889 840.15 217.756 841.65C218.623 843.15 219.056 845 219.056 847.2V862H215.106V847.5C215.106 845.067 214.489 843.3 213.256 842.2C212.056 841.1 210.423 840.55 208.356 840.55C205.989 840.55 204.056 841.317 202.556 842.85C201.089 844.383 200.356 846.667 200.356 849.7V862H196.406ZM236.92 862.7C233.887 862.7 231.32 862 229.22 860.6C227.153 859.2 225.903 856.983 225.47 853.95L229.22 853.1C229.487 854.7 229.987 855.967 230.72 856.9C231.453 857.8 232.353 858.45 233.42 858.85C234.52 859.217 235.687 859.4 236.92 859.4C238.753 859.4 240.203 859.033 241.27 858.3C242.337 857.567 242.87 856.583 242.87 855.35C242.87 854.083 242.353 853.2 241.32 852.7C240.32 852.167 238.937 851.733 237.17 851.4L235.12 851.05C233.553 850.783 232.12 850.367 230.82 849.8C229.52 849.233 228.487 848.467 227.72 847.5C226.953 846.533 226.57 845.317 226.57 843.85C226.57 841.65 227.42 839.933 229.12 838.7C230.82 837.467 233.07 836.85 235.87 836.85C238.637 836.85 240.87 837.483 242.57 838.75C244.303 839.983 245.42 841.733 245.92 844L242.22 844.95C241.92 843.183 241.203 841.95 240.07 841.25C238.937 840.517 237.537 840.15 235.87 840.15C234.203 840.15 232.887 840.467 231.92 841.1C230.953 841.7 230.47 842.6 230.47 843.8C230.47 844.967 230.92 845.833 231.82 846.4C232.753 846.933 233.987 847.333 235.52 847.6L237.57 847.95C239.303 848.25 240.853 848.667 242.22 849.2C243.62 849.7 244.72 850.433 245.52 851.4C246.353 852.367 246.77 853.633 246.77 855.2C246.77 857.6 245.87 859.45 244.07 860.75C242.303 862.05 239.92 862.7 236.92 862.7ZM261.9 862C260.5 862 259.417 861.617 258.65 860.85C257.917 860.083 257.55 859.033 257.55 857.7V841H250.2V837.55H257.55V828.85H261.5V837.55H269.5V841H261.5V857.1C261.5 858.1 261.983 858.6 262.95 858.6H268.4V862H261.9ZM283.252 862.7C281.552 862.7 280.002 862.4 278.602 861.8C277.202 861.2 276.102 860.333 275.302 859.2C274.502 858.067 274.102 856.683 274.102 855.05C274.102 853.383 274.502 852.017 275.302 850.95C276.102 849.85 277.202 849.033 278.602 848.5C280.002 847.933 281.568 847.65 283.302 847.65H291.552V845.85C291.552 844.117 291.035 842.75 290.002 841.75C289.002 840.75 287.502 840.25 285.502 840.25C283.535 840.25 282.002 840.733 280.902 841.7C279.802 842.633 279.052 843.9 278.652 845.5L274.952 844.3C275.352 842.933 275.985 841.7 276.852 840.6C277.718 839.467 278.868 838.567 280.302 837.9C281.768 837.2 283.518 836.85 285.552 836.85C288.685 836.85 291.118 837.667 292.852 839.3C294.585 840.9 295.452 843.167 295.452 846.1V857.15C295.452 858.15 295.918 858.65 296.852 858.65H299.102V862H295.652C294.552 862 293.668 861.7 293.002 861.1C292.335 860.467 292.002 859.633 292.002 858.6V858.35H291.402C291.035 858.983 290.535 859.65 289.902 860.35C289.302 861.017 288.468 861.567 287.402 862C286.335 862.467 284.952 862.7 283.252 862.7ZM283.702 859.3C286.035 859.3 287.918 858.617 289.352 857.25C290.818 855.85 291.552 853.9 291.552 851.4V850.85H283.452C281.885 850.85 280.585 851.2 279.552 851.9C278.552 852.567 278.052 853.583 278.052 854.95C278.052 856.317 278.568 857.383 279.602 858.15C280.668 858.917 282.035 859.3 283.702 859.3ZM302.628 849.9V849.2C302.628 846.633 303.144 844.433 304.178 842.6C305.211 840.767 306.611 839.35 308.378 838.35C310.144 837.35 312.078 836.85 314.178 836.85C316.744 836.85 318.711 837.35 320.078 838.35C321.478 839.317 322.511 840.4 323.178 841.6H323.878V837.55H327.628V867.7C327.628 869.033 327.261 870.083 326.528 870.85C325.794 871.617 324.728 872 323.328 872H306.728V868.5H322.278C323.278 868.5 323.778 868 323.778 867V857.7H323.078C322.678 858.433 322.111 859.15 321.378 859.85C320.644 860.55 319.694 861.133 318.528 861.6C317.361 862.033 315.911 862.25 314.178 862.25C312.078 862.25 310.144 861.75 308.378 860.75C306.611 859.75 305.211 858.333 304.178 856.5C303.144 854.633 302.628 852.433 302.628 849.9ZM315.228 858.75C317.761 858.75 319.811 857.95 321.378 856.35C322.978 854.75 323.778 852.55 323.778 849.75V849.35C323.778 846.517 322.978 844.317 321.378 842.75C319.811 841.15 317.761 840.35 315.228 840.35C312.728 840.35 310.661 841.15 309.028 842.75C307.428 844.317 306.628 846.517 306.628 849.35V849.75C306.628 852.55 307.428 854.75 309.028 856.35C310.661 857.95 312.728 858.75 315.228 858.75ZM335.908 862V837.55H339.758V840.55H340.458C340.891 839.483 341.558 838.7 342.458 838.2C343.358 837.7 344.541 837.45 346.008 837.45H348.908V841.05H345.758C343.991 841.05 342.558 841.55 341.458 842.55C340.391 843.517 339.858 845.033 339.858 847.1V862H335.908ZM361.425 862.7C359.725 862.7 358.175 862.4 356.775 861.8C355.375 861.2 354.275 860.333 353.475 859.2C352.675 858.067 352.275 856.683 352.275 855.05C352.275 853.383 352.675 852.017 353.475 850.95C354.275 849.85 355.375 849.033 356.775 848.5C358.175 847.933 359.742 847.65 361.475 847.65H369.725V845.85C369.725 844.117 369.209 842.75 368.175 841.75C367.175 840.75 365.675 840.25 363.675 840.25C361.709 840.25 360.175 840.733 359.075 841.7C357.975 842.633 357.225 843.9 356.825 845.5L353.125 844.3C353.525 842.933 354.159 841.7 355.025 840.6C355.892 839.467 357.042 838.567 358.475 837.9C359.942 837.2 361.692 836.85 363.725 836.85C366.859 836.85 369.292 837.667 371.025 839.3C372.759 840.9 373.625 843.167 373.625 846.1V857.15C373.625 858.15 374.092 858.65 375.025 858.65H377.275V862H373.825C372.725 862 371.842 861.7 371.175 861.1C370.509 860.467 370.175 859.633 370.175 858.6V858.35H369.575C369.209 858.983 368.709 859.65 368.075 860.35C367.475 861.017 366.642 861.567 365.575 862C364.509 862.467 363.125 862.7 361.425 862.7ZM361.875 859.3C364.209 859.3 366.092 858.617 367.525 857.25C368.992 855.85 369.725 853.9 369.725 851.4V850.85H361.625C360.059 850.85 358.759 851.2 357.725 851.9C356.725 852.567 356.225 853.583 356.225 854.95C356.225 856.317 356.742 857.383 357.775 858.15C358.842 858.917 360.209 859.3 361.875 859.3ZM382.685 862V837.55H386.535V840.6H387.235C387.702 839.733 388.468 838.933 389.535 838.2C390.602 837.467 392.102 837.1 394.035 837.1C395.935 837.1 397.468 837.517 398.635 838.35C399.835 839.183 400.702 840.2 401.235 841.4H401.935C402.502 840.2 403.352 839.183 404.485 838.35C405.652 837.517 407.268 837.1 409.335 837.1C410.968 837.1 412.402 837.433 413.635 838.1C414.868 838.767 415.835 839.733 416.535 841C417.268 842.233 417.635 843.717 417.635 845.45V862H413.685V845.8C413.685 844.167 413.202 842.883 412.235 841.95C411.302 840.983 409.985 840.5 408.285 840.5C406.485 840.5 405.002 841.083 403.835 842.25C402.702 843.417 402.135 845.1 402.135 847.3V862H398.185V845.8C398.185 844.167 397.702 842.883 396.735 841.95C395.802 840.983 394.485 840.5 392.785 840.5C390.985 840.5 389.502 841.083 388.335 842.25C387.202 843.417 386.635 845.1 386.635 847.3V862H382.685ZM427.853 862.7C426.886 862.7 426.069 862.383 425.403 861.75C424.769 861.117 424.453 860.3 424.453 859.3C424.453 858.3 424.769 857.483 425.403 856.85C426.069 856.217 426.886 855.9 427.853 855.9C428.853 855.9 429.669 856.217 430.303 856.85C430.936 857.483 431.253 858.3 431.253 859.3C431.253 860.3 430.936 861.117 430.303 861.75C429.669 862.383 428.853 862.7 427.853 862.7ZM449.257 862.7C446.891 862.7 444.757 862.2 442.857 861.2C440.991 860.167 439.507 858.7 438.407 856.8C437.341 854.9 436.807 852.65 436.807 850.05V849.5C436.807 846.867 437.341 844.617 438.407 842.75C439.507 840.85 440.991 839.4 442.857 838.4C444.757 837.367 446.891 836.85 449.257 836.85C451.591 836.85 453.574 837.283 455.207 838.15C456.874 839.017 458.174 840.167 459.107 841.6C460.074 843.033 460.691 844.567 460.957 846.2L457.107 847C456.941 845.8 456.541 844.7 455.907 843.7C455.307 842.7 454.457 841.9 453.357 841.3C452.257 840.7 450.907 840.4 449.307 840.4C447.674 840.4 446.207 840.767 444.907 841.5C443.641 842.233 442.624 843.283 441.857 844.65C441.124 846.017 440.757 847.65 440.757 849.55V850C440.757 851.9 441.124 853.533 441.857 854.9C442.624 856.267 443.641 857.317 444.907 858.05C446.207 858.783 447.674 859.15 449.307 859.15C451.741 859.15 453.591 858.517 454.857 857.25C456.157 855.983 456.957 854.417 457.257 852.55L461.157 853.4C460.791 855 460.124 856.517 459.157 857.95C458.191 859.383 456.874 860.533 455.207 861.4C453.574 862.267 451.591 862.7 449.257 862.7ZM479.19 862.7C476.724 862.7 474.54 862.183 472.64 861.15C470.774 860.117 469.307 858.667 468.24 856.8C467.207 854.9 466.69 852.667 466.69 850.1V849.45C466.69 846.917 467.207 844.7 468.24 842.8C469.307 840.9 470.774 839.433 472.64 838.4C474.54 837.367 476.724 836.85 479.19 836.85C481.657 836.85 483.824 837.367 485.69 838.4C487.59 839.433 489.057 840.9 490.09 842.8C491.157 844.7 491.69 846.917 491.69 849.45V850.1C491.69 852.667 491.157 854.9 490.09 856.8C489.057 858.667 487.59 860.117 485.69 861.15C483.824 862.183 481.657 862.7 479.19 862.7ZM479.19 859.15C481.79 859.15 483.857 858.333 485.39 856.7C486.957 855.033 487.74 852.8 487.74 850V849.55C487.74 846.75 486.957 844.533 485.39 842.9C483.857 841.233 481.79 840.4 479.19 840.4C476.624 840.4 474.557 841.233 472.99 842.9C471.424 844.533 470.64 846.75 470.64 849.55V850C470.64 852.8 471.424 855.033 472.99 856.7C474.557 858.333 476.624 859.15 479.19 859.15ZM498.798 862V837.55H502.648V840.6H503.348C503.815 839.733 504.582 838.933 505.648 838.2C506.715 837.467 508.215 837.1 510.148 837.1C512.048 837.1 513.582 837.517 514.748 838.35C515.948 839.183 516.815 840.2 517.348 841.4H518.048C518.615 840.2 519.465 839.183 520.598 838.35C521.765 837.517 523.382 837.1 525.448 837.1C527.082 837.1 528.515 837.433 529.748 838.1C530.982 838.767 531.948 839.733 532.648 841C533.382 842.233 533.748 843.717 533.748 845.45V862H529.798V845.8C529.798 844.167 529.315 842.883 528.348 841.95C527.415 840.983 526.098 840.5 524.398 840.5C522.598 840.5 521.115 841.083 519.948 842.25C518.815 843.417 518.248 845.1 518.248 847.3V862H514.298V845.8C514.298 844.167 513.815 842.883 512.848 841.95C511.915 840.983 510.598 840.5 508.898 840.5C507.098 840.5 505.615 841.083 504.448 842.25C503.315 843.417 502.748 845.1 502.748 847.3V862H498.798ZM537.666 872L552.366 827H556.316L541.616 872H537.666ZM560.172 862V827H568.322L580.522 859.35H581.172V827H585.322V862H577.172L565.022 829.6H564.322V862H560.172ZM604.725 862.7C602.258 862.7 600.092 862.183 598.225 861.15C596.358 860.083 594.908 858.6 593.875 856.7C592.842 854.8 592.325 852.6 592.325 850.1V849.5C592.325 846.967 592.842 844.75 593.875 842.85C594.908 840.95 596.342 839.483 598.175 838.45C600.008 837.383 602.108 836.85 604.475 836.85C606.775 836.85 608.808 837.35 610.575 838.35C612.342 839.317 613.725 840.717 614.725 842.55C615.725 844.383 616.225 846.533 616.225 849V850.8H596.275C596.375 853.433 597.225 855.5 598.825 857C600.425 858.467 602.425 859.2 604.825 859.2C606.925 859.2 608.542 858.717 609.675 857.75C610.808 856.783 611.675 855.633 612.275 854.3L615.675 855.95C615.175 856.983 614.475 858.017 613.575 859.05C612.708 860.083 611.558 860.95 610.125 861.65C608.725 862.35 606.925 862.7 604.725 862.7ZM596.325 847.55H612.225C612.092 845.283 611.308 843.517 609.875 842.25C608.475 840.983 606.675 840.35 604.475 840.35C602.242 840.35 600.408 840.983 598.975 842.25C597.542 843.517 596.658 845.283 596.325 847.55ZM632.465 862.45C630.698 862.45 629.065 862.067 627.565 861.3C626.098 860.533 624.932 859.4 624.065 857.9C623.232 856.367 622.815 854.517 622.815 852.35V837.55H626.765V852.05C626.765 854.483 627.365 856.25 628.565 857.35C629.798 858.45 631.448 859 633.515 859C635.848 859 637.765 858.233 639.265 856.7C640.765 855.167 641.515 852.883 641.515 849.85V837.55H645.465V862H641.615V857.85H640.915C640.382 859.017 639.465 860.083 638.165 861.05C636.865 861.983 634.965 862.45 632.465 862.45ZM653.73 862V837.55H657.58V840.55H658.28C658.713 839.483 659.38 838.7 660.28 838.2C661.18 837.7 662.363 837.45 663.83 837.45H666.73V841.05H663.58C661.813 841.05 660.38 841.55 659.28 842.55C658.213 843.517 657.68 845.033 657.68 847.1V862H653.73ZM682.999 862.7C680.532 862.7 678.349 862.183 676.449 861.15C674.582 860.117 673.115 858.667 672.049 856.8C671.015 854.9 670.499 852.667 670.499 850.1V849.45C670.499 846.917 671.015 844.7 672.049 842.8C673.115 840.9 674.582 839.433 676.449 838.4C678.349 837.367 680.532 836.85 682.999 836.85C685.465 836.85 687.632 837.367 689.499 838.4C691.399 839.433 692.865 840.9 693.899 842.8C694.965 844.7 695.499 846.917 695.499 849.45V850.1C695.499 852.667 694.965 854.9 693.899 856.8C692.865 858.667 691.399 860.117 689.499 861.15C687.632 862.183 685.465 862.7 682.999 862.7ZM682.999 859.15C685.599 859.15 687.665 858.333 689.199 856.7C690.765 855.033 691.549 852.8 691.549 850V849.55C691.549 846.75 690.765 844.533 689.199 842.9C687.665 841.233 685.599 840.4 682.999 840.4C680.432 840.4 678.365 841.233 676.799 842.9C675.232 844.533 674.449 846.75 674.449 849.55V850C674.449 852.8 675.232 855.033 676.799 856.7C678.365 858.333 680.432 859.15 682.999 859.15ZM710.582 862C709.182 862 708.098 861.617 707.332 860.85C706.598 860.083 706.232 859.033 706.232 857.7V841H698.882V837.55H706.232V828.85H710.182V837.55H718.182V841H710.182V857.1C710.182 858.1 710.665 858.6 711.632 858.6H717.082V862H710.582ZM734.901 862.7C732.434 862.7 730.267 862.183 728.401 861.15C726.534 860.083 725.084 858.6 724.051 856.7C723.017 854.8 722.501 852.6 722.501 850.1V849.5C722.501 846.967 723.017 844.75 724.051 842.85C725.084 840.95 726.517 839.483 728.351 838.45C730.184 837.383 732.284 836.85 734.651 836.85C736.951 836.85 738.984 837.35 740.751 838.35C742.517 839.317 743.901 840.717 744.901 842.55C745.901 844.383 746.401 846.533 746.401 849V850.8H726.451C726.551 853.433 727.401 855.5 729.001 857C730.601 858.467 732.601 859.2 735.001 859.2C737.101 859.2 738.717 858.717 739.851 857.75C740.984 856.783 741.851 855.633 742.451 854.3L745.851 855.95C745.351 856.983 744.651 858.017 743.751 859.05C742.884 860.083 741.734 860.95 740.301 861.65C738.901 862.35 737.101 862.7 734.901 862.7ZM726.501 847.55H742.401C742.267 845.283 741.484 843.517 740.051 842.25C738.651 840.983 736.851 840.35 734.651 840.35C732.417 840.35 730.584 840.983 729.151 842.25C727.717 843.517 726.834 845.283 726.501 847.55ZM764.541 862.7C762.174 862.7 760.041 862.2 758.141 861.2C756.274 860.167 754.791 858.7 753.691 856.8C752.624 854.9 752.091 852.65 752.091 850.05V849.5C752.091 846.867 752.624 844.617 753.691 842.75C754.791 840.85 756.274 839.4 758.141 838.4C760.041 837.367 762.174 836.85 764.541 836.85C766.874 836.85 768.857 837.283 770.491 838.15C772.157 839.017 773.457 840.167 774.391 841.6C775.357 843.033 775.974 844.567 776.241 846.2L772.391 847C772.224 845.8 771.824 844.7 771.191 843.7C770.591 842.7 769.741 841.9 768.641 841.3C767.541 840.7 766.191 840.4 764.591 840.4C762.957 840.4 761.491 840.767 760.191 841.5C758.924 842.233 757.907 843.283 757.141 844.65C756.407 846.017 756.041 847.65 756.041 849.55V850C756.041 851.9 756.407 853.533 757.141 854.9C757.907 856.267 758.924 857.317 760.191 858.05C761.491 858.783 762.957 859.15 764.591 859.15C767.024 859.15 768.874 858.517 770.141 857.25C771.441 855.983 772.241 854.417 772.541 852.55L776.441 853.4C776.074 855 775.407 856.517 774.441 857.95C773.474 859.383 772.157 860.533 770.491 861.4C768.857 862.267 766.874 862.7 764.541 862.7ZM783.173 862V827H787.123V841.45H787.823C788.157 840.717 788.657 840.033 789.323 839.4C790.023 838.733 790.907 838.183 791.973 837.75C793.073 837.317 794.457 837.1 796.123 837.1C797.957 837.1 799.59 837.5 801.023 838.3C802.49 839.067 803.657 840.2 804.523 841.7C805.39 843.167 805.823 845 805.823 847.2V862H801.873V847.5C801.873 845.067 801.257 843.3 800.023 842.2C798.823 841.1 797.19 840.55 795.123 840.55C792.757 840.55 790.823 841.317 789.323 842.85C787.857 844.383 787.123 846.667 787.123 849.7V862H783.173ZM813.838 862V827H817.788V841.45H818.488C818.821 840.717 819.321 840.033 819.988 839.4C820.688 838.733 821.571 838.183 822.638 837.75C823.738 837.317 825.121 837.1 826.788 837.1C828.621 837.1 830.254 837.5 831.688 838.3C833.154 839.067 834.321 840.2 835.188 841.7C836.054 843.167 836.488 845 836.488 847.2V862H832.538V847.5C832.538 845.067 831.921 843.3 830.688 842.2C829.488 841.1 827.854 840.55 825.788 840.55C823.421 840.55 821.488 841.317 819.988 842.85C818.521 844.383 817.788 846.667 817.788 849.7V862H813.838Z" fill="white" fill-opacity="0.8"/>
<path d="M180 868.25H304.227V870.75H180V868.25ZM330.102 868.25H535.57V870.75H330.102V868.25ZM545.344 868.25H840.338V870.75H545.344V868.25Z" fill="white" fill-opacity="0.8"/>
<path d="M83.82 432V426.24H89.46V395.76H83.82V390H105.12C107.64 390 109.84 390.44 111.72 391.32C113.6 392.16 115.06 393.38 116.1 394.98C117.18 396.54 117.72 398.4 117.72 400.56V401.16C117.72 403.08 117.36 404.66 116.64 405.9C115.92 407.14 115.04 408.1 114 408.78C113 409.46 112.04 409.94 111.12 410.22V411.18C112.04 411.42 113.02 411.9 114.06 412.62C115.14 413.3 116.04 414.26 116.76 415.5C117.52 416.74 117.9 418.36 117.9 420.36V420.96C117.9 423.28 117.36 425.26 116.28 426.9C115.2 428.54 113.7 429.8 111.78 430.68C109.9 431.56 107.72 432 105.24 432H83.82ZM96 426.12H104.46C106.62 426.12 108.32 425.6 109.56 424.56C110.8 423.52 111.42 422.08 111.42 420.24V419.7C111.42 417.86 110.8 416.42 109.56 415.38C108.36 414.34 106.66 413.82 104.46 413.82H96V426.12ZM96 407.88H104.46C106.5 407.88 108.14 407.38 109.38 406.38C110.62 405.34 111.24 403.94 111.24 402.18V401.58C111.24 399.82 110.62 398.44 109.38 397.44C108.18 396.4 106.54 395.88 104.46 395.88H96V407.88ZM138.905 432.84C135.905 432.84 133.285 432.22 131.045 430.98C128.805 429.7 127.045 427.92 125.765 425.64C124.525 423.32 123.905 420.64 123.905 417.6V416.88C123.905 413.8 124.525 411.12 125.765 408.84C127.005 406.52 128.725 404.74 130.925 403.5C133.165 402.22 135.745 401.58 138.665 401.58C141.505 401.58 143.985 402.22 146.105 403.5C148.265 404.74 149.945 406.48 151.145 408.72C152.345 410.96 152.945 413.58 152.945 416.58V418.92H130.205C130.285 421.52 131.145 423.6 132.785 425.16C134.465 426.68 136.545 427.44 139.025 427.44C141.345 427.44 143.085 426.92 144.245 425.88C145.445 424.84 146.365 423.64 147.005 422.28L152.105 424.92C151.545 426.04 150.725 427.22 149.645 428.46C148.605 429.7 147.225 430.74 145.505 431.58C143.785 432.42 141.585 432.84 138.905 432.84ZM130.265 414.18H146.645C146.485 411.94 145.685 410.2 144.245 408.96C142.805 407.68 140.925 407.04 138.605 407.04C136.285 407.04 134.385 407.68 132.905 408.96C131.465 410.2 130.585 411.94 130.265 414.18ZM160.384 432V402.42H166.564V432H160.384ZM163.504 398.4C162.304 398.4 161.284 398.02 160.444 397.26C159.644 396.46 159.244 395.44 159.244 394.2C159.244 392.96 159.644 391.96 160.444 391.2C161.284 390.4 162.304 390 163.504 390C164.744 390 165.764 390.4 166.564 391.2C167.364 391.96 167.764 392.96 167.764 394.2C167.764 395.44 167.364 396.46 166.564 397.26C165.764 398.02 164.744 398.4 163.504 398.4ZM175.736 432V402.42H181.796V406.86H182.756C183.316 405.66 184.316 404.54 185.756 403.5C187.196 402.46 189.336 401.94 192.176 401.94C194.416 401.94 196.396 402.44 198.116 403.44C199.876 404.44 201.256 405.86 202.256 407.7C203.256 409.5 203.756 411.68 203.756 414.24V432H197.576V414.72C197.576 412.16 196.936 410.28 195.656 409.08C194.376 407.84 192.616 407.22 190.376 407.22C187.816 407.22 185.756 408.06 184.196 409.74C182.676 411.42 181.916 413.86 181.916 417.06V432H175.736ZM211.21 417.36V416.46C211.21 413.34 211.83 410.68 213.07 408.48C214.35 406.28 216.03 404.58 218.11 403.38C220.19 402.18 222.47 401.58 224.95 401.58C227.83 401.58 230.03 402.12 231.55 403.2C233.11 404.28 234.25 405.44 234.97 406.68H235.93V402.42H241.93V438.06C241.93 439.86 241.39 441.3 240.31 442.38C239.27 443.46 237.83 444 235.99 444H216.07V438.6H234.07C235.23 438.6 235.81 438 235.81 436.8V427.38H234.85C234.41 428.1 233.79 428.84 232.99 429.6C232.19 430.36 231.13 430.98 229.81 431.46C228.53 431.94 226.91 432.18 224.95 432.18C222.47 432.18 220.17 431.6 218.05 430.44C215.97 429.24 214.31 427.54 213.07 425.34C211.83 423.1 211.21 420.44 211.21 417.36ZM226.63 426.78C229.31 426.78 231.51 425.94 233.23 424.26C234.99 422.54 235.87 420.18 235.87 417.18V416.64C235.87 413.56 235.01 411.2 233.29 409.56C231.57 407.88 229.35 407.04 226.63 407.04C223.99 407.04 221.79 407.88 220.03 409.56C218.31 411.2 217.45 413.56 217.45 416.64V417.18C217.45 420.18 218.31 422.54 220.03 424.26C221.79 425.94 223.99 426.78 226.63 426.78ZM275.502 432.84C273.382 432.84 271.482 432.48 269.802 431.76C268.162 431.04 266.842 429.98 265.842 428.58C264.882 427.18 264.402 425.48 264.402 423.48C264.402 421.44 264.882 419.76 265.842 418.44C266.842 417.08 268.182 416.06 269.862 415.38C271.582 414.7 273.522 414.36 275.682 414.36H284.682V412.44C284.682 410.72 284.162 409.34 283.122 408.3C282.082 407.26 280.482 406.74 278.322 406.74C276.202 406.74 274.582 407.24 273.462 408.24C272.342 409.24 271.602 410.54 271.242 412.14L265.482 410.28C265.962 408.68 266.722 407.24 267.762 405.96C268.842 404.64 270.262 403.58 272.022 402.78C273.782 401.98 275.902 401.58 278.382 401.58C282.222 401.58 285.242 402.56 287.442 404.52C289.642 406.48 290.742 409.26 290.742 412.86V425.04C290.742 426.24 291.302 426.84 292.422 426.84H294.942V432H290.322C288.922 432 287.782 431.64 286.902 430.92C286.022 430.2 285.582 429.22 285.582 427.98V427.8H284.682C284.362 428.4 283.882 429.1 283.242 429.9C282.602 430.7 281.662 431.4 280.422 432C279.182 432.56 277.542 432.84 275.502 432.84ZM276.402 427.74C278.882 427.74 280.882 427.04 282.402 425.64C283.922 424.2 284.682 422.24 284.682 419.76V419.16H276.042C274.402 419.16 273.082 419.52 272.082 420.24C271.082 420.92 270.582 421.94 270.582 423.3C270.582 424.66 271.102 425.74 272.142 426.54C273.182 427.34 274.602 427.74 276.402 427.74ZM328.484 432.84C326.044 432.84 323.784 432.24 321.704 431.04C319.624 429.84 317.944 428.12 316.664 425.88C315.424 423.6 314.804 420.86 314.804 417.66V416.76C314.804 413.6 315.424 410.88 316.664 408.6C317.904 406.32 319.564 404.58 321.644 403.38C323.724 402.18 326.004 401.58 328.484 401.58C330.404 401.58 332.004 401.82 333.284 402.3C334.604 402.78 335.684 403.4 336.524 404.16C337.364 404.88 338.004 405.64 338.444 406.44H339.404V390H345.584V432H339.524V427.8H338.564C337.804 429.08 336.644 430.24 335.084 431.28C333.564 432.32 331.364 432.84 328.484 432.84ZM330.224 427.44C332.904 427.44 335.104 426.58 336.824 424.86C338.584 423.14 339.464 420.68 339.464 417.48V416.94C339.464 413.78 338.604 411.34 336.884 409.62C335.164 407.9 332.944 407.04 330.224 407.04C327.584 407.04 325.384 407.9 323.624 409.62C321.904 411.34 321.044 413.78 321.044 416.94V417.48C321.044 420.68 321.904 423.14 323.624 424.86C325.384 426.58 327.584 427.44 330.224 427.44ZM368.241 432.84C365.241 432.84 362.621 432.22 360.381 430.98C358.141 429.7 356.381 427.92 355.101 425.64C353.861 423.32 353.241 420.64 353.241 417.6V416.88C353.241 413.8 353.861 411.12 355.101 408.84C356.341 406.52 358.061 404.74 360.261 403.5C362.501 402.22 365.081 401.58 368.001 401.58C370.841 401.58 373.321 402.22 375.441 403.5C377.601 404.74 379.281 406.48 380.481 408.72C381.681 410.96 382.281 413.58 382.281 416.58V418.92H359.541C359.621 421.52 360.481 423.6 362.121 425.16C363.801 426.68 365.881 427.44 368.361 427.44C370.681 427.44 372.421 426.92 373.581 425.88C374.781 424.84 375.701 423.64 376.341 422.28L381.441 424.92C380.881 426.04 380.061 427.22 378.981 428.46C377.941 429.7 376.561 430.74 374.841 431.58C373.121 432.42 370.921 432.84 368.241 432.84ZM359.601 414.18H375.981C375.821 411.94 375.021 410.2 373.581 408.96C372.141 407.68 370.261 407.04 367.941 407.04C365.621 407.04 363.721 407.68 362.241 408.96C360.801 410.2 359.921 411.94 359.601 414.18ZM395.505 432L385.545 402.42H392.085L399.945 427.44H400.905L408.765 402.42H415.305L405.345 432H395.505ZM433.808 432.84C430.808 432.84 428.188 432.22 425.948 430.98C423.708 429.7 421.948 427.92 420.668 425.64C419.428 423.32 418.808 420.64 418.808 417.6V416.88C418.808 413.8 419.428 411.12 420.668 408.84C421.908 406.52 423.628 404.74 425.828 403.5C428.068 402.22 430.648 401.58 433.568 401.58C436.408 401.58 438.888 402.22 441.008 403.5C443.168 404.74 444.848 406.48 446.048 408.72C447.248 410.96 447.848 413.58 447.848 416.58V418.92H425.108C425.188 421.52 426.048 423.6 427.688 425.16C429.368 426.68 431.448 427.44 433.928 427.44C436.248 427.44 437.988 426.92 439.148 425.88C440.348 424.84 441.268 423.64 441.908 422.28L447.008 424.92C446.448 426.04 445.628 427.22 444.548 428.46C443.508 429.7 442.128 430.74 440.408 431.58C438.688 432.42 436.488 432.84 433.808 432.84ZM425.168 414.18H441.548C441.388 411.94 440.588 410.2 439.148 408.96C437.708 407.68 435.828 407.04 433.508 407.04C431.188 407.04 429.288 407.68 427.808 408.96C426.368 410.2 425.488 411.94 425.168 414.18ZM455.287 432V390H461.467V432H455.287ZM484.498 432.84C481.538 432.84 478.898 432.24 476.578 431.04C474.298 429.8 472.498 428.04 471.178 425.76C469.858 423.48 469.198 420.78 469.198 417.66V416.76C469.198 413.64 469.858 410.96 471.178 408.72C472.498 406.44 474.298 404.68 476.578 403.44C478.898 402.2 481.538 401.58 484.498 401.58C487.458 401.58 490.098 402.2 492.418 403.44C494.738 404.68 496.558 406.44 497.878 408.72C499.198 410.96 499.858 413.64 499.858 416.76V417.66C499.858 420.78 499.198 423.48 497.878 425.76C496.558 428.04 494.738 429.8 492.418 431.04C490.098 432.24 487.458 432.84 484.498 432.84ZM484.498 427.32C487.218 427.32 489.418 426.46 491.098 424.74C492.818 422.98 493.678 420.56 493.678 417.48V416.94C493.678 413.86 492.838 411.46 491.158 409.74C489.478 407.98 487.258 407.1 484.498 407.1C481.818 407.1 479.618 407.98 477.898 409.74C476.218 411.46 475.378 413.86 475.378 416.94V417.48C475.378 420.56 476.218 422.98 477.898 424.74C479.618 426.46 481.818 427.32 484.498 427.32ZM507.552 444V402.42H513.612V406.68H514.572C515.332 405.36 516.472 404.18 517.992 403.14C519.552 402.1 521.772 401.58 524.652 401.58C527.132 401.58 529.392 402.18 531.432 403.38C533.512 404.58 535.172 406.32 536.412 408.6C537.692 410.84 538.332 413.56 538.332 416.76V417.66C538.332 420.86 537.712 423.6 536.472 425.88C535.232 428.12 533.572 429.84 531.492 431.04C529.412 432.24 527.132 432.84 524.652 432.84C522.732 432.84 521.112 432.6 519.792 432.12C518.472 431.64 517.412 431.04 516.612 430.32C515.812 429.56 515.172 428.78 514.692 427.98H513.732V444H507.552ZM522.852 427.44C525.572 427.44 527.792 426.58 529.512 424.86C531.232 423.14 532.092 420.68 532.092 417.48V416.94C532.092 413.78 531.212 411.34 529.452 409.62C527.732 407.9 525.532 407.04 522.852 407.04C520.212 407.04 518.012 407.9 516.252 409.62C514.532 411.34 513.672 413.78 513.672 416.94V417.48C513.672 420.68 514.532 423.14 516.252 424.86C518.012 426.58 520.212 427.44 522.852 427.44ZM559.55 432.84C556.55 432.84 553.93 432.22 551.69 430.98C549.45 429.7 547.69 427.92 546.41 425.64C545.17 423.32 544.55 420.64 544.55 417.6V416.88C544.55 413.8 545.17 411.12 546.41 408.84C547.65 406.52 549.37 404.74 551.57 403.5C553.81 402.22 556.39 401.58 559.31 401.58C562.15 401.58 564.63 402.22 566.75 403.5C568.91 404.74 570.59 406.48 571.79 408.72C572.99 410.96 573.59 413.58 573.59 416.58V418.92H550.85C550.93 421.52 551.79 423.6 553.43 425.16C555.11 426.68 557.19 427.44 559.67 427.44C561.99 427.44 563.73 426.92 564.89 425.88C566.09 424.84 567.01 423.64 567.65 422.28L572.75 424.92C572.19 426.04 571.37 427.22 570.29 428.46C569.25 429.7 567.87 430.74 566.15 431.58C564.43 432.42 562.23 432.84 559.55 432.84ZM550.91 414.18H567.29C567.13 411.94 566.33 410.2 564.89 408.96C563.45 407.68 561.57 407.04 559.25 407.04C556.93 407.04 555.03 407.68 553.55 408.96C552.11 410.2 551.23 411.94 550.91 414.18ZM581.029 432V402.42H587.089V405.9H588.049C588.529 404.66 589.289 403.76 590.329 403.2C591.409 402.6 592.729 402.3 594.289 402.3H597.829V407.88H594.049C592.049 407.88 590.409 408.44 589.129 409.56C587.849 410.64 587.209 412.32 587.209 414.6V432H581.029ZM619.525 432V402.42H625.585V405.9H626.545C627.105 404.86 628.005 403.94 629.245 403.14C630.485 402.34 632.165 401.94 634.285 401.94C636.485 401.94 638.245 402.4 639.565 403.32C640.925 404.2 641.945 405.34 642.625 406.74H643.585C644.265 405.38 645.245 404.24 646.525 403.32C647.845 402.4 649.705 401.94 652.105 401.94C654.025 401.94 655.725 402.34 657.205 403.14C658.685 403.9 659.865 405.06 660.745 406.62C661.625 408.14 662.065 410.04 662.065 412.32V432H655.885V412.8C655.885 411 655.385 409.62 654.385 408.66C653.425 407.66 652.045 407.16 650.245 407.16C648.325 407.16 646.785 407.78 645.625 409.02C644.465 410.26 643.885 412.04 643.885 414.36V432H637.705V412.8C637.705 411 637.205 409.62 636.205 408.66C635.245 407.66 633.865 407.16 632.065 407.16C630.145 407.16 628.605 407.78 627.445 409.02C626.285 410.26 625.705 412.04 625.705 414.36V432H619.525ZM684.53 432.84C681.53 432.84 678.91 432.22 676.67 430.98C674.43 429.7 672.67 427.92 671.39 425.64C670.15 423.32 669.53 420.64 669.53 417.6V416.88C669.53 413.8 670.15 411.12 671.39 408.84C672.63 406.52 674.35 404.74 676.55 403.5C678.79 402.22 681.37 401.58 684.29 401.58C687.13 401.58 689.61 402.22 691.73 403.5C693.89 404.74 695.57 406.48 696.77 408.72C697.97 410.96 698.57 413.58 698.57 416.58V418.92H675.83C675.91 421.52 676.77 423.6 678.41 425.16C680.09 426.68 682.17 427.44 684.65 427.44C686.97 427.44 688.71 426.92 689.87 425.88C691.07 424.84 691.99 423.64 692.63 422.28L697.73 424.92C697.17 426.04 696.35 427.22 695.27 428.46C694.23 429.7 692.85 430.74 691.13 431.58C689.41 432.42 687.21 432.84 684.53 432.84ZM675.89 414.18H692.27C692.11 411.94 691.31 410.2 689.87 408.96C688.43 407.68 686.55 407.04 684.23 407.04C681.91 407.04 680.01 407.68 678.53 408.96C677.09 410.2 676.21 411.94 675.89 414.18ZM715.189 432.84C713.069 432.84 711.169 432.48 709.489 431.76C707.849 431.04 706.529 429.98 705.529 428.58C704.569 427.18 704.089 425.48 704.089 423.48C704.089 421.44 704.569 419.76 705.529 418.44C706.529 417.08 707.869 416.06 709.549 415.38C711.269 414.7 713.209 414.36 715.369 414.36H724.369V412.44C724.369 410.72 723.849 409.34 722.809 408.3C721.769 407.26 720.169 406.74 718.009 406.74C715.889 406.74 714.269 407.24 713.149 408.24C712.029 409.24 711.289 410.54 710.929 412.14L705.169 410.28C705.649 408.68 706.409 407.24 707.449 405.96C708.529 404.64 709.949 403.58 711.709 402.78C713.469 401.98 715.589 401.58 718.069 401.58C721.909 401.58 724.929 402.56 727.129 404.52C729.329 406.48 730.429 409.26 730.429 412.86V425.04C730.429 426.24 730.989 426.84 732.109 426.84H734.629V432H730.009C728.609 432 727.469 431.64 726.589 430.92C725.709 430.2 725.269 429.22 725.269 427.98V427.8H724.369C724.049 428.4 723.569 429.1 722.929 429.9C722.289 430.7 721.349 431.4 720.109 432C718.869 432.56 717.229 432.84 715.189 432.84ZM716.089 427.74C718.569 427.74 720.569 427.04 722.089 425.64C723.609 424.2 724.369 422.24 724.369 419.76V419.16H715.729C714.089 419.16 712.769 419.52 711.769 420.24C710.769 420.92 710.269 421.94 710.269 423.3C710.269 424.66 710.789 425.74 711.829 426.54C712.869 427.34 714.289 427.74 716.089 427.74ZM740.638 432V402.42H746.698V406.86H747.658C748.218 405.66 749.218 404.54 750.658 403.5C752.098 402.46 754.238 401.94 757.078 401.94C759.318 401.94 761.298 402.44 763.018 403.44C764.778 404.44 766.158 405.86 767.158 407.7C768.158 409.5 768.658 411.68 768.658 414.24V432H762.478V414.72C762.478 412.16 761.838 410.28 760.558 409.08C759.278 407.84 757.518 407.22 755.278 407.22C752.718 407.22 750.658 408.06 749.098 409.74C747.578 411.42 746.818 413.86 746.818 417.06V432H740.638ZM789.672 432.84C785.912 432.84 782.792 432 780.312 430.32C777.832 428.64 776.312 426.1 775.752 422.7L781.512 421.32C781.832 422.96 782.372 424.26 783.132 425.22C783.892 426.18 784.832 426.86 785.952 427.26C787.112 427.66 788.352 427.86 789.672 427.86C791.632 427.86 793.132 427.48 794.172 426.72C795.252 425.96 795.792 424.98 795.792 423.78C795.792 422.58 795.292 421.7 794.292 421.14C793.292 420.58 791.812 420.12 789.852 419.76L787.812 419.4C785.812 419.04 783.992 418.52 782.352 417.84C780.712 417.16 779.412 416.22 778.452 415.02C777.492 413.82 777.012 412.28 777.012 410.4C777.012 407.6 778.052 405.44 780.132 403.92C782.212 402.36 784.972 401.58 788.412 401.58C791.732 401.58 794.452 402.34 796.572 403.86C798.732 405.34 800.132 407.36 800.772 409.92L795.012 411.54C794.652 409.74 793.892 408.48 792.732 407.76C791.572 407 790.132 406.62 788.412 406.62C786.732 406.62 785.412 406.94 784.452 407.58C783.492 408.18 783.012 409.04 783.012 410.16C783.012 411.36 783.472 412.24 784.392 412.8C785.352 413.36 786.632 413.78 788.232 414.06L790.332 414.42C792.452 414.78 794.392 415.28 796.152 415.92C797.912 416.56 799.292 417.48 800.292 418.68C801.332 419.88 801.852 421.48 801.852 423.48C801.852 426.44 800.752 428.74 798.552 430.38C796.352 432.02 793.392 432.84 789.672 432.84ZM102.66 509.84C99.78 509.84 97.56 509.32 96 508.28C94.48 507.24 93.34 506.08 92.58 504.8H91.62V509H85.56V467H91.74V483.44H92.7C93.18 482.64 93.82 481.88 94.62 481.16C95.42 480.4 96.48 479.78 97.8 479.3C99.12 478.82 100.74 478.58 102.66 478.58C105.14 478.58 107.42 479.18 109.5 480.38C111.58 481.58 113.24 483.32 114.48 485.6C115.72 487.88 116.34 490.6 116.34 493.76V494.66C116.34 497.86 115.7 500.6 114.42 502.88C113.18 505.12 111.52 506.84 109.44 508.04C107.4 509.24 105.14 509.84 102.66 509.84ZM100.86 504.44C103.54 504.44 105.74 503.58 107.46 501.86C109.22 500.14 110.1 497.68 110.1 494.48V493.94C110.1 490.78 109.24 488.34 107.52 486.62C105.8 484.9 103.58 484.04 100.86 484.04C98.22 484.04 96.02 484.9 94.26 486.62C92.54 488.34 91.68 490.78 91.68 493.94V494.48C91.68 497.68 92.54 500.14 94.26 501.86C96.02 503.58 98.22 504.44 100.86 504.44ZM133.178 509.84C131.058 509.84 129.158 509.48 127.478 508.76C125.838 508.04 124.518 506.98 123.518 505.58C122.558 504.18 122.078 502.48 122.078 500.48C122.078 498.44 122.558 496.76 123.518 495.44C124.518 494.08 125.858 493.06 127.538 492.38C129.258 491.7 131.198 491.36 133.358 491.36H142.358V489.44C142.358 487.72 141.838 486.34 140.798 485.3C139.758 484.26 138.158 483.74 135.998 483.74C133.878 483.74 132.258 484.24 131.138 485.24C130.018 486.24 129.278 487.54 128.918 489.14L123.158 487.28C123.638 485.68 124.398 484.24 125.438 482.96C126.518 481.64 127.938 480.58 129.698 479.78C131.458 478.98 133.578 478.58 136.058 478.58C139.898 478.58 142.918 479.56 145.118 481.52C147.318 483.48 148.418 486.26 148.418 489.86V502.04C148.418 503.24 148.978 503.84 150.098 503.84H152.618V509H147.998C146.598 509 145.458 508.64 144.578 507.92C143.698 507.2 143.258 506.22 143.258 504.98V504.8H142.358C142.038 505.4 141.558 506.1 140.918 506.9C140.278 507.7 139.338 508.4 138.098 509C136.858 509.56 135.218 509.84 133.178 509.84ZM134.078 504.74C136.558 504.74 138.558 504.04 140.078 502.64C141.598 501.2 142.358 499.24 142.358 496.76V496.16H133.718C132.078 496.16 130.758 496.52 129.758 497.24C128.758 497.92 128.257 498.94 128.257 500.3C128.257 501.66 128.778 502.74 129.818 503.54C130.858 504.34 132.278 504.74 134.078 504.74ZM169.726 509C167.926 509 166.486 508.46 165.406 507.38C164.366 506.3 163.846 504.86 163.846 503.06V484.64H155.686V479.42H163.846V469.64H170.026V479.42H176.986V484.64H170.026V501.98C170.026 503.18 170.586 503.78 171.706 503.78H177.886V509H169.726ZM189.166 509C187.366 509 185.926 508.46 184.846 507.38C183.766 506.3 183.226 504.86 183.226 503.06V484.64H176.986V479.42H183.226V469.64H189.406V479.42H198.286V484.64H189.406V501.98C189.406 503.18 189.986 503.78 191.146 503.78H197.266V509H189.166ZM205.56 509V467H211.74V509H205.56ZM220.912 509V479.42H227.092V509H220.912ZM224.032 475.4C222.832 475.4 221.812 475.02 220.972 474.26C220.172 473.46 219.772 472.44 219.772 471.2C219.772 469.96 220.172 468.96 220.972 468.2C221.812 467.4 222.832 467 224.032 467C225.272 467 226.292 467.4 227.092 468.2C227.892 468.96 228.292 469.96 228.292 471.2C228.292 472.44 227.892 473.46 227.092 474.26C226.292 475.02 225.272 475.4 224.032 475.4ZM236.263 509V479.42H242.323V483.86H243.283C243.843 482.66 244.843 481.54 246.283 480.5C247.723 479.46 249.863 478.94 252.703 478.94C254.943 478.94 256.923 479.44 258.643 480.44C260.403 481.44 261.783 482.86 262.783 484.7C263.783 486.5 264.283 488.68 264.283 491.24V509H258.103V491.72C258.103 489.16 257.463 487.28 256.183 486.08C254.903 484.84 253.143 484.22 250.903 484.22C248.343 484.22 246.283 485.06 244.723 486.74C243.203 488.42 242.443 490.86 242.443 494.06V509H236.263ZM271.737 494.36V493.46C271.737 490.34 272.357 487.68 273.597 485.48C274.877 483.28 276.557 481.58 278.637 480.38C280.717 479.18 282.997 478.58 285.477 478.58C288.357 478.58 290.557 479.12 292.077 480.2C293.637 481.28 294.777 482.44 295.497 483.68H296.457V479.42H302.457V515.06C302.457 516.86 301.917 518.3 300.837 519.38C299.797 520.46 298.357 521 296.517 521H276.597V515.6H294.597C295.757 515.6 296.337 515 296.337 513.8V504.38H295.377C294.937 505.1 294.317 505.84 293.517 506.6C292.717 507.36 291.657 507.98 290.337 508.46C289.057 508.94 287.437 509.18 285.477 509.18C282.997 509.18 280.697 508.6 278.577 507.44C276.497 506.24 274.837 504.54 273.597 502.34C272.357 500.1 271.737 497.44 271.737 494.36ZM287.157 503.78C289.837 503.78 292.037 502.94 293.757 501.26C295.517 499.54 296.397 497.18 296.397 494.18V493.64C296.397 490.56 295.537 488.2 293.817 486.56C292.097 484.88 289.877 484.04 287.157 484.04C284.517 484.04 282.317 484.88 280.557 486.56C278.837 488.2 277.977 490.56 277.977 493.64V494.18C277.977 497.18 278.837 499.54 280.557 501.26C282.317 502.94 284.517 503.78 287.157 503.78ZM326.849 509V479.42H333.029V509H326.849ZM329.969 475.4C328.769 475.4 327.749 475.02 326.909 474.26C326.109 473.46 325.709 472.44 325.709 471.2C325.709 469.96 326.109 468.96 326.909 468.2C327.749 467.4 328.769 467 329.969 467C331.209 467 332.229 467.4 333.029 468.2C333.829 468.96 334.229 469.96 334.229 471.2C334.229 472.44 333.829 473.46 333.029 474.26C332.229 475.02 331.209 475.4 329.969 475.4ZM342.201 509V479.42H348.261V482.9H349.221C349.781 481.86 350.681 480.94 351.921 480.14C353.161 479.34 354.841 478.94 356.961 478.94C359.161 478.94 360.921 479.4 362.241 480.32C363.601 481.2 364.621 482.34 365.301 483.74H366.261C366.941 482.38 367.921 481.24 369.201 480.32C370.521 479.4 372.381 478.94 374.781 478.94C376.701 478.94 378.401 479.34 379.881 480.14C381.361 480.9 382.541 482.06 383.421 483.62C384.301 485.14 384.741 487.04 384.741 489.32V509H378.561V489.8C378.561 488 378.061 486.62 377.061 485.66C376.101 484.66 374.721 484.16 372.921 484.16C371.001 484.16 369.461 484.78 368.301 486.02C367.141 487.26 366.561 489.04 366.561 491.36V509H360.381V489.8C360.381 488 359.881 486.62 358.881 485.66C357.921 484.66 356.541 484.16 354.741 484.16C352.821 484.16 351.281 484.78 350.121 486.02C348.961 487.26 348.381 489.04 348.381 491.36V509H342.201ZM393.646 521V479.42H399.706V483.68H400.666C401.426 482.36 402.566 481.18 404.086 480.14C405.646 479.1 407.866 478.58 410.746 478.58C413.226 478.58 415.486 479.18 417.526 480.38C419.606 481.58 421.266 483.32 422.506 485.6C423.786 487.84 424.426 490.56 424.426 493.76V494.66C424.426 497.86 423.806 500.6 422.566 502.88C421.326 505.12 419.666 506.84 417.586 508.04C415.506 509.24 413.226 509.84 410.746 509.84C408.826 509.84 407.206 509.6 405.886 509.12C404.566 508.64 403.506 508.04 402.706 507.32C401.906 506.56 401.266 505.78 400.786 504.98H399.826V521H393.646ZM408.946 504.44C411.666 504.44 413.886 503.58 415.606 501.86C417.326 500.14 418.186 497.68 418.186 494.48V493.94C418.186 490.78 417.306 488.34 415.546 486.62C413.826 484.9 411.626 484.04 408.946 484.04C406.306 484.04 404.106 484.9 402.346 486.62C400.626 488.34 399.766 490.78 399.766 493.94V494.48C399.766 497.68 400.626 500.14 402.346 501.86C404.106 503.58 406.306 504.44 408.946 504.44ZM445.943 509.84C442.983 509.84 440.343 509.24 438.023 508.04C435.743 506.8 433.943 505.04 432.623 502.76C431.303 500.48 430.643 497.78 430.643 494.66V493.76C430.643 490.64 431.303 487.96 432.623 485.72C433.943 483.44 435.743 481.68 438.023 480.44C440.343 479.2 442.983 478.58 445.943 478.58C448.903 478.58 451.543 479.2 453.863 480.44C456.183 481.68 458.003 483.44 459.323 485.72C460.643 487.96 461.303 490.64 461.303 493.76V494.66C461.303 497.78 460.643 500.48 459.323 502.76C458.003 505.04 456.183 506.8 453.863 508.04C451.543 509.24 448.903 509.84 445.943 509.84ZM445.943 504.32C448.663 504.32 450.863 503.46 452.543 501.74C454.263 499.98 455.123 497.56 455.123 494.48V493.94C455.123 490.86 454.283 488.46 452.603 486.74C450.923 484.98 448.703 484.1 445.943 484.1C443.263 484.1 441.063 484.98 439.343 486.74C437.663 488.46 436.823 490.86 436.823 493.94V494.48C436.823 497.56 437.663 499.98 439.343 501.74C441.063 503.46 443.263 504.32 445.943 504.32ZM481.118 509.84C477.358 509.84 474.238 509 471.758 507.32C469.278 505.64 467.758 503.1 467.198 499.7L472.958 498.32C473.278 499.96 473.818 501.26 474.578 502.22C475.338 503.18 476.278 503.86 477.398 504.26C478.558 504.66 479.798 504.86 481.118 504.86C483.078 504.86 484.578 504.48 485.618 503.72C486.698 502.96 487.238 501.98 487.238 500.78C487.238 499.58 486.738 498.7 485.738 498.14C484.738 497.58 483.258 497.12 481.298 496.76L479.258 496.4C477.258 496.04 475.438 495.52 473.798 494.84C472.158 494.16 470.858 493.22 469.898 492.02C468.938 490.82 468.458 489.28 468.458 487.4C468.458 484.6 469.498 482.44 471.578 480.92C473.658 479.36 476.418 478.58 479.857 478.58C483.178 478.58 485.898 479.34 488.018 480.86C490.178 482.34 491.578 484.36 492.218 486.92L486.458 488.54C486.098 486.74 485.338 485.48 484.178 484.76C483.018 484 481.578 483.62 479.857 483.62C478.178 483.62 476.858 483.94 475.898 484.58C474.938 485.18 474.458 486.04 474.458 487.16C474.458 488.36 474.918 489.24 475.838 489.8C476.798 490.36 478.078 490.78 479.678 491.06L481.778 491.42C483.898 491.78 485.838 492.28 487.598 492.92C489.358 493.56 490.738 494.48 491.738 495.68C492.778 496.88 493.298 498.48 493.298 500.48C493.298 503.44 492.198 505.74 489.998 507.38C487.798 509.02 484.838 509.84 481.118 509.84ZM510.976 509C509.176 509 507.736 508.46 506.656 507.38C505.616 506.3 505.096 504.86 505.096 503.06V484.64H496.936V479.42H505.096V469.64H511.276V479.42H520.096V484.64H511.276V501.98C511.276 503.18 511.836 503.78 512.956 503.78H519.136V509H510.976ZM539.862 509.84C536.862 509.84 534.242 509.22 532.002 507.98C529.762 506.7 528.002 504.92 526.722 502.64C525.482 500.32 524.862 497.64 524.862 494.6V493.88C524.862 490.8 525.482 488.12 526.722 485.84C527.962 483.52 529.682 481.74 531.882 480.5C534.122 479.22 536.702 478.58 539.622 478.58C542.462 478.58 544.942 479.22 547.062 480.5C549.222 481.74 550.902 483.48 552.102 485.72C553.302 487.96 553.902 490.58 553.902 493.58V495.92H531.162C531.242 498.52 532.102 500.6 533.742 502.16C535.422 503.68 537.502 504.44 539.982 504.44C542.302 504.44 544.042 503.92 545.202 502.88C546.402 501.84 547.322 500.64 547.962 499.28L553.062 501.92C552.502 503.04 551.682 504.22 550.602 505.46C549.562 506.7 548.182 507.74 546.462 508.58C544.742 509.42 542.542 509.84 539.862 509.84ZM531.222 491.18H547.602C547.442 488.94 546.642 487.2 545.202 485.96C543.762 484.68 541.882 484.04 539.562 484.04C537.242 484.04 535.342 484.68 533.862 485.96C532.422 487.2 531.542 488.94 531.222 491.18ZM561.341 509V479.42H567.401V482.9H568.361C568.841 481.66 569.601 480.76 570.641 480.2C571.721 479.6 573.041 479.3 574.601 479.3H578.141V484.88H574.361C572.361 484.88 570.721 485.44 569.441 486.56C568.161 487.64 567.521 489.32 567.521 491.6V509H561.341ZM611.957 509.84C608.197 509.84 605.077 509 602.597 507.32C600.117 505.64 598.597 503.1 598.037 499.7L603.797 498.32C604.117 499.96 604.657 501.26 605.417 502.22C606.177 503.18 607.117 503.86 608.237 504.26C609.397 504.66 610.637 504.86 611.957 504.86C613.917 504.86 615.417 504.48 616.457 503.72C617.537 502.96 618.077 501.98 618.077 500.78C618.077 499.58 617.577 498.7 616.577 498.14C615.577 497.58 614.097 497.12 612.137 496.76L610.097 496.4C608.097 496.04 606.277 495.52 604.637 494.84C602.997 494.16 601.697 493.22 600.737 492.02C599.777 490.82 599.297 489.28 599.297 487.4C599.297 484.6 600.337 482.44 602.417 480.92C604.497 479.36 607.257 478.58 610.697 478.58C614.017 478.58 616.737 479.34 618.857 480.86C621.017 482.34 622.417 484.36 623.057 486.92L617.297 488.54C616.937 486.74 616.177 485.48 615.017 484.76C613.857 484 612.417 483.62 610.697 483.62C609.017 483.62 607.697 483.94 606.737 484.58C605.777 485.18 605.297 486.04 605.297 487.16C605.297 488.36 605.757 489.24 606.677 489.8C607.637 490.36 608.917 490.78 610.517 491.06L612.617 491.42C614.737 491.78 616.677 492.28 618.437 492.92C620.197 493.56 621.577 494.48 622.577 495.68C623.617 496.88 624.137 498.48 624.137 500.48C624.137 503.44 623.037 505.74 620.837 507.38C618.637 509.02 615.677 509.84 611.957 509.84ZM634.781 521V515.6H651.281C652.401 515.6 652.961 515 652.961 513.8V504.68H652.001C651.641 505.48 651.081 506.26 650.321 507.02C649.601 507.74 648.621 508.34 647.381 508.82C646.141 509.3 644.581 509.54 642.701 509.54C640.461 509.54 638.461 509.04 636.701 508.04C634.941 507.04 633.561 505.62 632.561 503.78C631.561 501.94 631.061 499.76 631.061 497.24V479.42H637.241V496.76C637.241 499.32 637.881 501.22 639.161 502.46C640.441 503.66 642.221 504.26 644.501 504.26C647.021 504.26 649.041 503.42 650.561 501.74C652.121 500.06 652.901 497.62 652.901 494.42V479.42H659.081V515.06C659.081 516.86 658.541 518.3 657.461 519.38C656.421 520.46 654.981 521 653.141 521H634.781ZM668.216 509V479.42H674.276V483.86H675.236C675.796 482.66 676.796 481.54 678.236 480.5C679.676 479.46 681.816 478.94 684.656 478.94C686.896 478.94 688.876 479.44 690.596 480.44C692.356 481.44 693.736 482.86 694.736 484.7C695.736 486.5 696.236 488.68 696.236 491.24V509H690.056V491.72C690.056 489.16 689.416 487.28 688.136 486.08C686.856 484.84 685.096 484.22 682.856 484.22C680.296 484.22 678.236 485.06 676.676 486.74C675.156 488.42 674.396 490.86 674.396 494.06V509H668.216ZM717.37 509.84C714.93 509.84 712.67 509.24 710.59 508.04C708.51 506.84 706.83 505.12 705.55 502.88C704.31 500.6 703.69 497.86 703.69 494.66V493.76C703.69 490.6 704.31 487.88 705.55 485.6C706.79 483.32 708.45 481.58 710.53 480.38C712.61 479.18 714.89 478.58 717.37 478.58C719.29 478.58 720.89 478.82 722.17 479.3C723.49 479.78 724.57 480.4 725.41 481.16C726.25 481.88 726.89 482.64 727.33 483.44H728.29V467H734.47V509H728.41V504.8H727.45C726.69 506.08 725.53 507.24 723.97 508.28C722.45 509.32 720.25 509.84 717.37 509.84ZM719.11 504.44C721.79 504.44 723.99 503.58 725.71 501.86C727.47 500.14 728.35 497.68 728.35 494.48V493.94C728.35 490.78 727.49 488.34 725.77 486.62C724.05 484.9 721.83 484.04 719.11 484.04C716.47 484.04 714.27 484.9 712.51 486.62C710.79 488.34 709.93 490.78 709.93 493.94V494.48C709.93 497.68 710.79 500.14 712.51 501.86C714.27 503.58 716.47 504.44 719.11 504.44ZM743.568 509V479.42H749.628V482.9H750.588C751.068 481.66 751.828 480.76 752.868 480.2C753.948 479.6 755.268 479.3 756.828 479.3H760.368V484.88H756.588C754.588 484.88 752.948 485.44 751.668 486.56C750.388 487.64 749.748 489.32 749.748 491.6V509H743.568ZM779.576 509.84C776.616 509.84 773.976 509.24 771.656 508.04C769.376 506.8 767.576 505.04 766.256 502.76C764.936 500.48 764.276 497.78 764.276 494.66V493.76C764.276 490.64 764.936 487.96 766.256 485.72C767.576 483.44 769.376 481.68 771.656 480.44C773.976 479.2 776.616 478.58 779.576 478.58C782.536 478.58 785.176 479.2 787.496 480.44C789.816 481.68 791.636 483.44 792.956 485.72C794.276 487.96 794.936 490.64 794.936 493.76V494.66C794.936 497.78 794.276 500.48 792.956 502.76C791.636 505.04 789.816 506.8 787.496 508.04C785.176 509.24 782.536 509.84 779.576 509.84ZM779.576 504.32C782.296 504.32 784.496 503.46 786.176 501.74C787.896 499.98 788.756 497.56 788.756 494.48V493.94C788.756 490.86 787.916 488.46 786.236 486.74C784.556 484.98 782.336 484.1 779.576 484.1C776.896 484.1 774.696 484.98 772.976 486.74C771.296 488.46 770.456 490.86 770.456 493.94V494.48C770.456 497.56 771.296 499.98 772.976 501.74C774.696 503.46 776.896 504.32 779.576 504.32ZM802.63 509V479.42H808.69V482.9H809.65C810.21 481.86 811.11 480.94 812.35 480.14C813.59 479.34 815.27 478.94 817.39 478.94C819.59 478.94 821.35 479.4 822.67 480.32C824.03 481.2 825.05 482.34 825.73 483.74H826.69C827.37 482.38 828.35 481.24 829.63 480.32C830.95 479.4 832.81 478.94 835.21 478.94C837.13 478.94 838.83 479.34 840.31 480.14C841.79 480.9 842.97 482.06 843.85 483.62C844.73 485.14 845.17 487.04 845.17 489.32V509H838.99V489.8C838.99 488 838.49 486.62 837.49 485.66C836.53 484.66 835.15 484.16 833.35 484.16C831.43 484.16 829.89 484.78 828.73 486.02C827.57 487.26 826.99 489.04 826.99 491.36V509H820.81V489.8C820.81 488 820.31 486.62 819.31 485.66C818.35 484.66 816.97 484.16 815.17 484.16C813.25 484.16 811.71 484.78 810.55 486.02C809.39 487.26 808.81 489.04 808.81 491.36V509H802.63ZM867.636 509.84C864.636 509.84 862.016 509.22 859.776 507.98C857.536 506.7 855.776 504.92 854.496 502.64C853.256 500.32 852.636 497.64 852.636 494.6V493.88C852.636 490.8 853.256 488.12 854.496 485.84C855.736 483.52 857.456 481.74 859.656 480.5C861.896 479.22 864.476 478.58 867.396 478.58C870.236 478.58 872.716 479.22 874.836 480.5C876.996 481.74 878.676 483.48 879.876 485.72C881.076 487.96 881.676 490.58 881.676 493.58V495.92H858.936C859.016 498.52 859.876 500.6 861.516 502.16C863.196 503.68 865.276 504.44 867.756 504.44C870.076 504.44 871.816 503.92 872.976 502.88C874.176 501.84 875.096 500.64 875.736 499.28L880.836 501.92C880.276 503.04 879.456 504.22 878.376 505.46C877.336 506.7 875.956 507.74 874.236 508.58C872.516 509.42 870.316 509.84 867.636 509.84ZM858.996 491.18H875.376C875.216 488.94 874.416 487.2 872.976 485.96C871.536 484.68 869.656 484.04 867.336 484.04C865.016 484.04 863.116 484.68 861.636 485.96C860.196 487.2 859.316 488.94 858.996 491.18ZM892.425 509.84C891.025 509.84 889.845 509.38 888.885 508.46C887.965 507.54 887.505 506.36 887.505 504.92C887.505 503.48 887.965 502.32 888.885 501.44C889.845 500.52 891.025 500.06 892.425 500.06C893.825 500.06 894.985 500.52 895.905 501.44C896.865 502.36 897.345 503.52 897.345 504.92C897.345 506.36 896.865 507.54 895.905 508.46C894.985 509.38 893.825 509.84 892.425 509.84ZM85.38 586V544H111.3V549.88H91.86V562H109.74V567.88H91.86V586H85.38ZM131.054 586.84C128.054 586.84 125.434 586.22 123.194 584.98C120.954 583.7 119.194 581.92 117.914 579.64C116.674 577.32 116.054 574.64 116.054 571.6V570.88C116.054 567.8 116.674 565.12 117.914 562.84C119.154 560.52 120.874 558.74 123.074 557.5C125.314 556.22 127.894 555.58 130.814 555.58C133.654 555.58 136.134 556.22 138.254 557.5C140.414 558.74 142.094 560.48 143.294 562.72C144.494 564.96 145.094 567.58 145.094 570.58V572.92H122.354C122.434 575.52 123.294 577.6 124.934 579.16C126.614 580.68 128.694 581.44 131.174 581.44C133.494 581.44 135.234 580.92 136.394 579.88C137.594 578.84 138.514 577.64 139.154 576.28L144.254 578.92C143.694 580.04 142.874 581.22 141.794 582.46C140.754 583.7 139.374 584.74 137.654 585.58C135.934 586.42 133.734 586.84 131.054 586.84ZM122.414 568.18H138.794C138.634 565.94 137.834 564.2 136.394 562.96C134.954 561.68 133.074 561.04 130.754 561.04C128.434 561.04 126.534 561.68 125.054 562.96C123.614 564.2 122.734 565.94 122.414 568.18ZM161.713 586.84C159.593 586.84 157.693 586.48 156.013 585.76C154.373 585.04 153.053 583.98 152.053 582.58C151.093 581.18 150.613 579.48 150.613 577.48C150.613 575.44 151.093 573.76 152.053 572.44C153.053 571.08 154.393 570.06 156.073 569.38C157.793 568.7 159.733 568.36 161.893 568.36H170.893V566.44C170.893 564.72 170.373 563.34 169.333 562.3C168.293 561.26 166.693 560.74 164.533 560.74C162.413 560.74 160.793 561.24 159.673 562.24C158.553 563.24 157.813 564.54 157.453 566.14L151.693 564.28C152.173 562.68 152.933 561.24 153.973 559.96C155.053 558.64 156.473 557.58 158.233 556.78C159.993 555.98 162.113 555.58 164.593 555.58C168.433 555.58 171.453 556.56 173.653 558.52C175.853 560.48 176.953 563.26 176.953 566.86V579.04C176.953 580.24 177.513 580.84 178.633 580.84H181.153V586H176.533C175.133 586 173.993 585.64 173.113 584.92C172.233 584.2 171.793 583.22 171.793 581.98V581.8H170.893C170.573 582.4 170.093 583.1 169.453 583.9C168.813 584.7 167.873 585.4 166.633 586C165.393 586.56 163.753 586.84 161.713 586.84ZM162.613 581.74C165.093 581.74 167.093 581.04 168.613 579.64C170.133 578.2 170.893 576.24 170.893 573.76V573.16H162.253C160.613 573.16 159.293 573.52 158.293 574.24C157.293 574.92 156.793 575.94 156.793 577.3C156.793 578.66 157.313 579.74 158.353 580.54C159.393 581.34 160.813 581.74 162.613 581.74ZM187.162 586V556.42H193.222V559.9H194.182C194.662 558.66 195.422 557.76 196.462 557.2C197.542 556.6 198.862 556.3 200.422 556.3H203.962V561.88H200.182C198.182 561.88 196.542 562.44 195.262 563.56C193.982 564.64 193.342 566.32 193.342 568.6V586H187.162ZM225.658 586V556.42H231.718V560.86H232.678C233.238 559.66 234.238 558.54 235.678 557.5C237.118 556.46 239.258 555.94 242.098 555.94C244.338 555.94 246.318 556.44 248.038 557.44C249.798 558.44 251.178 559.86 252.178 561.7C253.178 563.5 253.678 565.68 253.678 568.24V586H247.498V568.72C247.498 566.16 246.858 564.28 245.578 563.08C244.298 561.84 242.538 561.22 240.298 561.22C237.738 561.22 235.678 562.06 234.118 563.74C232.598 565.42 231.838 567.86 231.838 571.06V586H225.658ZM276.432 586.84C273.472 586.84 270.832 586.24 268.512 585.04C266.232 583.8 264.432 582.04 263.112 579.76C261.792 577.48 261.132 574.78 261.132 571.66V570.76C261.132 567.64 261.792 564.96 263.112 562.72C264.432 560.44 266.232 558.68 268.512 557.44C270.832 556.2 273.472 555.58 276.432 555.58C279.392 555.58 282.032 556.2 284.352 557.44C286.672 558.68 288.492 560.44 289.812 562.72C291.132 564.96 291.792 567.64 291.792 570.76V571.66C291.792 574.78 291.132 577.48 289.812 579.76C288.492 582.04 286.672 583.8 284.352 585.04C282.032 586.24 279.392 586.84 276.432 586.84ZM276.432 581.32C279.152 581.32 281.352 580.46 283.032 578.74C284.752 576.98 285.612 574.56 285.612 571.48V570.94C285.612 567.86 284.772 565.46 283.092 563.74C281.412 561.98 279.192 561.1 276.432 561.1C273.752 561.1 271.552 561.98 269.832 563.74C268.152 565.46 267.312 567.86 267.312 570.94V571.48C267.312 574.56 268.152 576.98 269.832 578.74C271.552 580.46 273.752 581.32 276.432 581.32ZM309.473 586C307.673 586 306.233 585.46 305.153 584.38C304.113 583.3 303.593 581.86 303.593 580.06V561.64H295.433V556.42H303.593V546.64H309.773V556.42H318.593V561.64H309.773V578.98C309.773 580.18 310.333 580.78 311.452 580.78H317.633V586H309.473ZM324.678 573.46V567.82H369.798V573.46H324.678ZM734.369 586V544H740.549V560.62H741.509C741.909 559.86 742.469 559.12 743.189 558.4C743.949 557.68 744.929 557.1 746.129 556.66C747.369 556.18 748.929 555.94 750.809 555.94C753.049 555.94 755.029 556.44 756.749 557.44C758.509 558.44 759.889 559.86 760.889 561.7C761.889 563.5 762.389 565.68 762.389 568.24V586H756.209V568.72C756.209 566.16 755.569 564.28 754.289 563.08C753.009 561.84 751.249 561.22 749.009 561.22C746.449 561.22 744.389 562.06 742.829 563.74C741.309 565.42 740.549 567.86 740.549 571.06V586H734.369ZM780.463 586.84C778.343 586.84 776.443 586.48 774.763 585.76C773.123 585.04 771.803 583.98 770.803 582.58C769.843 581.18 769.363 579.48 769.363 577.48C769.363 575.44 769.843 573.76 770.803 572.44C771.803 571.08 773.143 570.06 774.823 569.38C776.543 568.7 778.483 568.36 780.643 568.36H789.643V566.44C789.643 564.72 789.123 563.34 788.083 562.3C787.043 561.26 785.443 560.74 783.283 560.74C781.163 560.74 779.543 561.24 778.423 562.24C777.303 563.24 776.563 564.54 776.203 566.14L770.443 564.28C770.923 562.68 771.683 561.24 772.723 559.96C773.803 558.64 775.223 557.58 776.983 556.78C778.743 555.98 780.863 555.58 783.343 555.58C787.183 555.58 790.203 556.56 792.403 558.52C794.603 560.48 795.703 563.26 795.703 566.86V579.04C795.703 580.24 796.263 580.84 797.383 580.84H799.903V586H795.283C793.883 586 792.743 585.64 791.863 584.92C790.983 584.2 790.543 583.22 790.543 581.98V581.8H789.643C789.323 582.4 788.843 583.1 788.203 583.9C787.563 584.7 786.623 585.4 785.383 586C784.143 586.56 782.503 586.84 780.463 586.84ZM781.363 581.74C783.843 581.74 785.843 581.04 787.363 579.64C788.883 578.2 789.643 576.24 789.643 573.76V573.16H781.003C779.363 573.16 778.043 573.52 777.043 574.24C776.043 574.92 775.543 575.94 775.543 577.3C775.543 578.66 776.063 579.74 777.103 580.54C778.143 581.34 779.563 581.74 781.363 581.74ZM817.797 586.84C814.037 586.84 810.917 586 808.437 584.32C805.957 582.64 804.437 580.1 803.877 576.7L809.637 575.32C809.957 576.96 810.497 578.26 811.257 579.22C812.017 580.18 812.957 580.86 814.077 581.26C815.237 581.66 816.477 581.86 817.797 581.86C819.757 581.86 821.257 581.48 822.297 580.72C823.377 579.96 823.917 578.98 823.917 577.78C823.917 576.58 823.417 575.7 822.417 575.14C821.417 574.58 819.937 574.12 817.977 573.76L815.937 573.4C813.937 573.04 812.117 572.52 810.477 571.84C808.837 571.16 807.537 570.22 806.577 569.02C805.617 567.82 805.137 566.28 805.137 564.4C805.137 561.6 806.177 559.44 808.257 557.92C810.337 556.36 813.097 555.58 816.537 555.58C819.857 555.58 822.577 556.34 824.697 557.86C826.857 559.34 828.257 561.36 828.897 563.92L823.137 565.54C822.777 563.74 822.017 562.48 820.857 561.76C819.697 561 818.257 560.62 816.537 560.62C814.857 560.62 813.537 560.94 812.577 561.58C811.617 562.18 811.137 563.04 811.137 564.16C811.137 565.36 811.597 566.24 812.517 566.8C813.477 567.36 814.757 567.78 816.357 568.06L818.457 568.42C820.577 568.78 822.517 569.28 824.277 569.92C826.037 570.56 827.417 571.48 828.417 572.68C829.457 573.88 829.977 575.48 829.977 577.48C829.977 580.44 828.877 582.74 826.677 584.38C824.477 586.02 821.517 586.84 817.797 586.84ZM88.98 675V669.6H105.48C106.6 669.6 107.16 669 107.16 667.8V658.68H106.2C105.84 659.48 105.28 660.26 104.52 661.02C103.8 661.74 102.82 662.34 101.58 662.82C100.34 663.3 98.78 663.54 96.9 663.54C94.66 663.54 92.66 663.04 90.9 662.04C89.14 661.04 87.76 659.62 86.76 657.78C85.76 655.94 85.26 653.76 85.26 651.24V633.42H91.44V650.76C91.44 653.32 92.08 655.22 93.36 656.46C94.64 657.66 96.42 658.26 98.7 658.26C101.22 658.26 103.24 657.42 104.76 655.74C106.32 654.06 107.1 651.62 107.1 648.42V633.42H113.28V669.06C113.28 670.86 112.74 672.3 111.66 673.38C110.62 674.46 109.18 675 107.34 675H88.98ZM136.275 663.84C133.315 663.84 130.675 663.24 128.355 662.04C126.075 660.8 124.275 659.04 122.955 656.76C121.635 654.48 120.975 651.78 120.975 648.66V647.76C120.975 644.64 121.635 641.96 122.955 639.72C124.275 637.44 126.075 635.68 128.355 634.44C130.675 633.2 133.315 632.58 136.275 632.58C139.235 632.58 141.875 633.2 144.195 634.44C146.515 635.68 148.335 637.44 149.655 639.72C150.975 641.96 151.635 644.64 151.635 647.76V648.66C151.635 651.78 150.975 654.48 149.655 656.76C148.335 659.04 146.515 660.8 144.195 662.04C141.875 663.24 139.235 663.84 136.275 663.84ZM136.275 658.32C138.995 658.32 141.195 657.46 142.875 655.74C144.595 653.98 145.455 651.56 145.455 648.48V647.94C145.455 644.86 144.615 642.46 142.935 640.74C141.255 638.98 139.035 638.1 136.275 638.1C133.595 638.1 131.395 638.98 129.675 640.74C127.995 642.46 127.155 644.86 127.155 647.94V648.48C127.155 651.56 127.995 653.98 129.675 655.74C131.395 657.46 133.595 658.32 136.275 658.32ZM170.67 663.54C168.43 663.54 166.43 663.04 164.67 662.04C162.91 661.04 161.53 659.62 160.53 657.78C159.53 655.94 159.03 653.74 159.03 651.18V633.42H165.21V650.76C165.21 653.32 165.85 655.22 167.13 656.46C168.41 657.66 170.19 658.26 172.47 658.26C174.99 658.26 177.01 657.42 178.53 655.74C180.09 654.02 180.87 651.56 180.87 648.36V633.42H187.05V663H180.99V658.56H180.03C179.47 659.76 178.47 660.9 177.03 661.98C175.59 663.02 173.47 663.54 170.67 663.54ZM225.218 663.84C222.378 663.84 219.798 663.24 217.478 662.04C215.198 660.84 213.378 659.1 212.018 656.82C210.698 654.54 210.038 651.8 210.038 648.6V647.82C210.038 644.62 210.698 641.9 212.018 639.66C213.378 637.38 215.198 635.64 217.478 634.44C219.798 633.2 222.378 632.58 225.218 632.58C228.058 632.58 230.478 633.1 232.478 634.14C234.478 635.18 236.078 636.56 237.278 638.28C238.518 640 239.318 641.9 239.678 643.98L233.678 645.24C233.478 643.92 233.058 642.72 232.418 641.64C231.778 640.56 230.878 639.7 229.718 639.06C228.558 638.42 227.098 638.1 225.338 638.1C223.618 638.1 222.058 638.5 220.658 639.3C219.298 640.06 218.218 641.18 217.418 642.66C216.618 644.1 216.218 645.86 216.218 647.94V648.48C216.218 650.56 216.618 652.34 217.418 653.82C218.218 655.3 219.298 656.42 220.658 657.18C222.058 657.94 223.618 658.32 225.338 658.32C227.938 658.32 229.918 657.66 231.278 656.34C232.638 654.98 233.498 653.26 233.858 651.18L239.858 652.56C239.378 654.6 238.518 656.48 237.278 658.2C236.078 659.92 234.478 661.3 232.478 662.34C230.478 663.34 228.058 663.84 225.218 663.84ZM260.846 663.84C257.886 663.84 255.246 663.24 252.926 662.04C250.646 660.8 248.846 659.04 247.526 656.76C246.206 654.48 245.546 651.78 245.546 648.66V647.76C245.546 644.64 246.206 641.96 247.526 639.72C248.846 637.44 250.646 635.68 252.926 634.44C255.246 633.2 257.886 632.58 260.846 632.58C263.806 632.58 266.446 633.2 268.766 634.44C271.086 635.68 272.906 637.44 274.226 639.72C275.546 641.96 276.206 644.64 276.206 647.76V648.66C276.206 651.78 275.546 654.48 274.226 656.76C272.906 659.04 271.086 660.8 268.766 662.04C266.446 663.24 263.806 663.84 260.846 663.84ZM260.846 658.32C263.566 658.32 265.766 657.46 267.446 655.74C269.166 653.98 270.026 651.56 270.026 648.48V647.94C270.026 644.86 269.186 642.46 267.506 640.74C265.826 638.98 263.606 638.1 260.846 638.1C258.166 638.1 255.966 638.98 254.246 640.74C252.566 642.46 251.726 644.86 251.726 647.94V648.48C251.726 651.56 252.566 653.98 254.246 655.74C255.966 657.46 258.166 658.32 260.846 658.32ZM289.685 663L279.725 633.42H286.265L294.125 658.44H295.085L302.945 633.42H309.485L299.525 663H289.685ZM327.987 663.84C324.987 663.84 322.367 663.22 320.127 661.98C317.887 660.7 316.127 658.92 314.847 656.64C313.607 654.32 312.987 651.64 312.987 648.6V647.88C312.987 644.8 313.607 642.12 314.847 639.84C316.087 637.52 317.807 635.74 320.007 634.5C322.247 633.22 324.827 632.58 327.747 632.58C330.587 632.58 333.067 633.22 335.187 634.5C337.347 635.74 339.027 637.48 340.227 639.72C341.427 641.96 342.027 644.58 342.027 647.58V649.92H319.287C319.367 652.52 320.227 654.6 321.867 656.16C323.547 657.68 325.627 658.44 328.107 658.44C330.427 658.44 332.167 657.92 333.327 656.88C334.527 655.84 335.447 654.64 336.087 653.28L341.187 655.92C340.627 657.04 339.807 658.22 338.727 659.46C337.687 660.7 336.307 661.74 334.587 662.58C332.867 663.42 330.667 663.84 327.987 663.84ZM319.347 645.18H335.727C335.567 642.94 334.767 641.2 333.327 639.96C331.887 638.68 330.007 638.04 327.687 638.04C325.367 638.04 323.467 638.68 321.987 639.96C320.547 641.2 319.667 642.94 319.347 645.18ZM349.466 663V633.42H355.526V636.9H356.486C356.966 635.66 357.726 634.76 358.766 634.2C359.846 633.6 361.166 633.3 362.726 633.3H366.266V638.88H362.486C360.486 638.88 358.846 639.44 357.566 640.56C356.286 641.64 355.646 643.32 355.646 645.6V663H349.466ZM385.175 663.84C382.175 663.84 379.555 663.22 377.315 661.98C375.075 660.7 373.315 658.92 372.035 656.64C370.795 654.32 370.175 651.64 370.175 648.6V647.88C370.175 644.8 370.795 642.12 372.035 639.84C373.275 637.52 374.995 635.74 377.195 634.5C379.435 633.22 382.015 632.58 384.935 632.58C387.775 632.58 390.255 633.22 392.375 634.5C394.535 635.74 396.215 637.48 397.415 639.72C398.615 641.96 399.215 644.58 399.215 647.58V649.92H376.475C376.555 652.52 377.415 654.6 379.055 656.16C380.735 657.68 382.815 658.44 385.295 658.44C387.615 658.44 389.355 657.92 390.515 656.88C391.715 655.84 392.635 654.64 393.275 653.28L398.375 655.92C397.815 657.04 396.995 658.22 395.915 659.46C394.875 660.7 393.495 661.74 391.775 662.58C390.055 663.42 387.855 663.84 385.175 663.84ZM376.535 645.18H392.915C392.755 642.94 391.955 641.2 390.515 639.96C389.075 638.68 387.195 638.04 384.875 638.04C382.555 638.04 380.655 638.68 379.175 639.96C377.735 641.2 376.855 642.94 376.535 645.18ZM418.894 663.84C416.454 663.84 414.194 663.24 412.114 662.04C410.034 660.84 408.354 659.12 407.074 656.88C405.834 654.6 405.214 651.86 405.214 648.66V647.76C405.214 644.6 405.834 641.88 407.074 639.6C408.314 637.32 409.974 635.58 412.054 634.38C414.134 633.18 416.414 632.58 418.894 632.58C420.814 632.58 422.414 632.82 423.694 633.3C425.014 633.78 426.094 634.4 426.934 635.16C427.774 635.88 428.414 636.64 428.854 637.44H429.814V621H435.994V663H429.934V658.8H428.974C428.214 660.08 427.054 661.24 425.494 662.28C423.974 663.32 421.774 663.84 418.894 663.84ZM420.634 658.44C423.314 658.44 425.514 657.58 427.234 655.86C428.994 654.14 429.874 651.68 429.874 648.48V647.94C429.874 644.78 429.014 642.34 427.294 640.62C425.574 638.9 423.354 638.04 420.634 638.04C417.994 638.04 415.794 638.9 414.034 640.62C412.314 642.34 411.454 644.78 411.454 647.94V648.48C411.454 651.68 412.314 654.14 414.034 655.86C415.794 657.58 417.994 658.44 420.634 658.44Z" fill="white"/>
<path d="M378.163 586V544H393.223L401.563 580.6H402.643V544H410.443V586H395.383L387.043 549.4H385.963V586H378.163ZM432.158 586.84C429.198 586.84 426.578 586.22 424.298 584.98C422.058 583.7 420.298 581.92 419.018 579.64C417.778 577.32 417.158 574.6 417.158 571.48V570.76C417.158 567.64 417.778 564.94 419.018 562.66C420.258 560.34 421.998 558.56 424.238 557.32C426.478 556.04 429.078 555.4 432.038 555.4C434.958 555.4 437.498 556.06 439.658 557.38C441.818 558.66 443.498 560.46 444.698 562.78C445.898 565.06 446.498 567.72 446.498 570.76V573.34H424.838C424.918 575.38 425.678 577.04 427.118 578.32C428.558 579.6 430.318 580.24 432.398 580.24C434.518 580.24 436.078 579.78 437.078 578.86C438.078 577.94 438.838 576.92 439.358 575.8L445.538 579.04C444.978 580.08 444.158 581.22 443.078 582.46C442.038 583.66 440.638 584.7 438.878 585.58C437.118 586.42 434.878 586.84 432.158 586.84ZM424.898 567.7H438.818C438.658 565.98 437.958 564.6 436.718 563.56C435.518 562.52 433.938 562 431.978 562C429.938 562 428.318 562.52 427.118 563.56C425.918 564.6 425.178 565.98 424.898 567.7ZM464.567 586.48C462.247 586.48 460.207 585.96 458.447 584.92C456.727 583.84 455.387 582.36 454.427 580.48C453.467 578.6 452.987 576.44 452.987 574V556.24H460.547V573.4C460.547 575.64 461.087 577.32 462.167 578.44C463.287 579.56 464.867 580.12 466.907 580.12C469.227 580.12 471.027 579.36 472.307 577.84C473.587 576.28 474.227 574.12 474.227 571.36V556.24H481.787V586H474.347V582.1H473.267C472.787 583.1 471.887 584.08 470.567 585.04C469.247 586 467.247 586.48 464.567 586.48ZM490.2 586V556.24H497.64V559.6H498.72C499.16 558.4 499.88 557.52 500.88 556.96C501.92 556.4 503.12 556.12 504.48 556.12H508.08V562.84H504.36C502.44 562.84 500.86 563.36 499.62 564.4C498.38 565.4 497.76 566.96 497.76 569.08V586H490.2ZM527.094 586.84C524.134 586.84 521.474 586.24 519.114 585.04C516.754 583.84 514.894 582.1 513.534 579.82C512.174 577.54 511.494 574.8 511.494 571.6V570.64C511.494 567.44 512.174 564.7 513.534 562.42C514.894 560.14 516.754 558.4 519.114 557.2C521.474 556 524.134 555.4 527.094 555.4C530.054 555.4 532.714 556 535.074 557.2C537.434 558.4 539.294 560.14 540.654 562.42C542.014 564.7 542.694 567.44 542.694 570.64V571.6C542.694 574.8 542.014 577.54 540.654 579.82C539.294 582.1 537.434 583.84 535.074 585.04C532.714 586.24 530.054 586.84 527.094 586.84ZM527.094 580.12C529.414 580.12 531.334 579.38 532.854 577.9C534.374 576.38 535.134 574.22 535.134 571.42V570.82C535.134 568.02 534.374 565.88 532.854 564.4C531.374 562.88 529.454 562.12 527.094 562.12C524.774 562.12 522.854 562.88 521.334 564.4C519.814 565.88 519.054 568.02 519.054 570.82V571.42C519.054 574.22 519.814 576.38 521.334 577.9C522.854 579.38 524.774 580.12 527.094 580.12ZM560.077 586C558.117 586 556.517 585.4 555.277 584.2C554.077 582.96 553.477 581.32 553.477 579.28V562.48H546.037V556.24H553.477V547H561.037V556.24H569.197V562.48H561.037V577.96C561.037 579.16 561.597 579.76 562.717 579.76H568.477V586H560.077ZM588.545 586.84C585.585 586.84 582.965 586.22 580.685 584.98C578.445 583.7 576.685 581.92 575.405 579.64C574.165 577.32 573.545 574.6 573.545 571.48V570.76C573.545 567.64 574.165 564.94 575.405 562.66C576.645 560.34 578.385 558.56 580.625 557.32C582.865 556.04 585.465 555.4 588.425 555.4C591.345 555.4 593.885 556.06 596.045 557.38C598.205 558.66 599.885 560.46 601.085 562.78C602.285 565.06 602.885 567.72 602.885 570.76V573.34H581.225C581.305 575.38 582.065 577.04 583.505 578.32C584.945 579.6 586.705 580.24 588.785 580.24C590.905 580.24 592.465 579.78 593.465 578.86C594.465 577.94 595.225 576.92 595.745 575.8L601.925 579.04C601.365 580.08 600.545 581.22 599.465 582.46C598.425 583.66 597.025 584.7 595.265 585.58C593.505 586.42 591.265 586.84 588.545 586.84ZM581.285 567.7H595.205C595.045 565.98 594.345 564.6 593.105 563.56C591.905 562.52 590.325 562 588.365 562C586.325 562 584.705 562.52 583.505 563.56C582.305 564.6 581.565 565.98 581.285 567.7ZM623.594 586.84C620.714 586.84 618.094 586.24 615.734 585.04C613.414 583.84 611.574 582.1 610.214 579.82C608.854 577.54 608.174 574.78 608.174 571.54V570.7C608.174 567.46 608.854 564.7 610.214 562.42C611.574 560.14 613.414 558.4 615.734 557.2C618.094 556 620.714 555.4 623.594 555.4C626.434 555.4 628.874 555.9 630.914 556.9C632.954 557.9 634.594 559.28 635.834 561.04C637.114 562.76 637.954 564.72 638.354 566.92L631.034 568.48C630.874 567.28 630.514 566.2 629.954 565.24C629.394 564.28 628.594 563.52 627.554 562.96C626.554 562.4 625.294 562.12 623.774 562.12C622.254 562.12 620.874 562.46 619.634 563.14C618.434 563.78 617.474 564.76 616.754 566.08C616.074 567.36 615.734 568.94 615.734 570.82V571.42C615.734 573.3 616.074 574.9 616.754 576.22C617.474 577.5 618.434 578.48 619.634 579.16C620.874 579.8 622.254 580.12 623.774 580.12C626.054 580.12 627.774 579.54 628.934 578.38C630.134 577.18 630.894 575.62 631.214 573.7L638.534 575.44C638.014 577.56 637.114 579.5 635.834 581.26C634.594 582.98 632.954 584.34 630.914 585.34C628.874 586.34 626.434 586.84 623.594 586.84ZM644.77 586V544H652.33V559.9H653.41C653.73 559.26 654.23 558.62 654.91 557.98C655.59 557.34 656.49 556.82 657.61 556.42C658.77 555.98 660.23 555.76 661.99 555.76C664.31 555.76 666.33 556.3 668.05 557.38C669.81 558.42 671.17 559.88 672.13 561.76C673.09 563.6 673.57 565.76 673.57 568.24V586H666.01V568.84C666.01 566.6 665.45 564.92 664.33 563.8C663.25 562.68 661.69 562.12 659.65 562.12C657.33 562.12 655.53 562.9 654.25 564.46C652.97 565.98 652.33 568.12 652.33 570.88V586H644.77ZM681.743 586V544H689.303V559.9H690.383C690.703 559.26 691.203 558.62 691.883 557.98C692.563 557.34 693.463 556.82 694.583 556.42C695.743 555.98 697.203 555.76 698.963 555.76C701.283 555.76 703.303 556.3 705.023 557.38C706.783 558.42 708.143 559.88 709.103 561.76C710.063 563.6 710.543 565.76 710.543 568.24V586H702.983V568.84C702.983 566.6 702.423 564.92 701.303 563.8C700.223 562.68 698.663 562.12 696.623 562.12C694.303 562.12 692.503 562.9 691.223 564.46C689.943 565.98 689.303 568.12 689.303 570.88V586H681.743Z" fill="#FF0066"/>
<path d="M81 86.184L81.8958 220.658V223.931H111.328C113.653 223.931 113.362 223.288 113.362 221.848V134.979C113.362 130.457 116.019 131.064 117.721 133.194L198.504 224.228C208.384 224.03 228.74 224.121 231.762 223.883C234.785 223.645 234.62 220.016 233.666 218.873L113.943 83.5122H87.4998C84.2452 83.5122 81.0002 84.9941 81 86.184Z" fill="white"/>
<path d="M131.668 83.4378L255.554 224.229H264.434V186.079L201.687 115.532C199.793 111.899 202.279 111.192 203.759 111.293H249.931C251.825 111.293 252.299 109.678 252.299 108.871V83.4378C252.299 81.2578 251.115 80.9146 250.523 81.0156L132.852 81.0156C130.721 81.0156 131.175 82.6304 131.668 83.4378Z" fill="url(#paint0_linear_1941_2)"/>
<path d="M131.668 83.4378L255.554 224.229H264.434V186.079L201.687 115.532C199.793 111.899 202.279 111.192 203.759 111.293H249.931C251.825 111.293 252.299 109.678 252.299 108.871V83.4378C252.299 81.2578 251.115 80.9146 250.523 81.0156L132.852 81.0156C130.721 81.0156 131.175 82.6304 131.668 83.4378Z" fill="url(#paint1_linear_1941_2)"/>
<path d="M134.125 808.25H102.875C94.2456 808.25 87.25 815.246 87.25 823.875V855.125C87.25 863.754 94.2456 870.75 102.875 870.75H134.125C142.754 870.75 149.75 863.754 149.75 855.125V823.875C149.75 815.246 142.754 808.25 134.125 808.25Z" stroke="#FF0066" stroke-width="2" stroke-linecap="round" stroke-linejoin="round"/>
<path d="M131 837.531C131.385 840.132 130.941 842.788 129.73 845.122C128.519 847.456 126.603 849.348 124.255 850.53C121.906 851.712 119.245 852.124 116.649 851.706C114.053 851.288 111.655 850.063 109.796 848.204C107.937 846.344 106.711 843.946 106.294 841.351C105.876 838.755 106.287 836.093 107.469 833.745C108.651 831.396 110.544 829.48 112.878 828.269C115.211 827.059 117.868 826.614 120.468 827C123.121 827.393 125.577 828.63 127.474 830.526C129.37 832.422 130.606 834.878 131 837.531Z" stroke="#FF0066" stroke-width="2" stroke-linecap="round" stroke-linejoin="round"/>
<path d="M135.688 822.312H135.719" stroke="#FF0066" stroke-width="2" stroke-linecap="round" stroke-linejoin="round"/>
</g>
<defs>
<linearGradient id="paint0_linear_1941_2" x1="197.845" y1="81" x2="197.845" y2="224.229" gradientUnits="userSpaceOnUse">
<stop stop-color="#FF0066"/>
<stop offset="1" stop-color="#9061D1"/>
</linearGradient>
<linearGradient id="paint1_linear_1941_2" x1="142.563" y1="77.2308" x2="268.621" y2="223.87" gradientUnits="userSpaceOnUse">
<stop stop-opacity="0"/>
<stop offset="1"/>
</linearGradient>
<clipPath id="clip0_1941_2">
<rect width="1000" height="1000" rx="20" fill="white"/>
</clipPath>
</defs>
</svg>
