<svg xmlns="http://www.w3.org/2000/svg" xmlns:xlink="http://www.w3.org/1999/xlink" width="500" zoomAndPan="magnify" viewBox="0 0 375 374.999991" height="500" preserveAspectRatio="xMidYMid meet" version="1.0"><defs><clipPath id="d576036b76"><path d="M 214 184 L 245 184 L 245 218 L 214 218 Z M 214 184 " clip-rule="nonzero"/></clipPath><clipPath id="ba3afa85e0"><path d="M 214.683594 192.6875 L 233.398438 184.550781 L 244.179688 209.355469 L 225.464844 217.492188 Z M 214.683594 192.6875 " clip-rule="nonzero"/></clipPath><clipPath id="d34d241c88"><path d="M 147 118 L 177 118 L 177 152 L 147 152 Z M 147 118 " clip-rule="nonzero"/></clipPath><clipPath id="9fe4f068fb"><path d="M 147.160156 126.664062 L 165.875 118.527344 L 176.65625 143.332031 L 157.9375 151.46875 Z M 147.160156 126.664062 " clip-rule="nonzero"/></clipPath></defs><path stroke-linecap="butt" transform="matrix(0.000000001309, 0.75, -0.75, 0.000000001309, 95.219295, 127.499992)" fill="none" stroke-linejoin="miter" d="M 0.0000111459 10.000727 L 160.000022 10.000728 " stroke="#8c52ff" stroke-width="20" stroke-opacity="1" stroke-miterlimit="4"/><path stroke-linecap="butt" transform="matrix(0.643549, 0.385156, -0.385156, 0.643549, 95.422366, 127.411163)" fill="none" stroke-linejoin="miter" d="M 0.00012414 10.001491 L 122.594003 10.003026 " stroke="#8c52ff" stroke-width="20" stroke-opacity="1" stroke-miterlimit="4"/><path stroke-linecap="butt" transform="matrix(0.643549, 0.385156, -0.385156, 0.643549, 116.104348, 187.500163)" fill="none" stroke-linejoin="miter" d="M 0.002546 10.001352 L 122.59375 9.998419 " stroke="#8c52ff" stroke-width="20" stroke-opacity="1" stroke-miterlimit="4"/><path stroke-linecap="butt" transform="matrix(0, 0.75, -0.75, 0, 202.499713, 169.464538)" fill="none" stroke-linejoin="miter" d="M 0.000407038 9.999618 L 104.047289 9.999618 " stroke="#8c52ff" stroke-width="20" stroke-opacity="1" stroke-miterlimit="4"/><path stroke-linecap="round" transform="matrix(-0.75, 0, 0, -0.75, 253.828113, 177.059343)" fill="none" stroke-linejoin="miter" d="M 9.999985 10.000999 L 78.442698 10.000999 " stroke="#8c52ff" stroke-width="20" stroke-opacity="1" stroke-miterlimit="4"/><path stroke-linecap="butt" transform="matrix(0.75, 0, 0, 0.75, 161.905688, 127.499992)" fill="none" stroke-linejoin="miter" d="M 0.000748976 10.000012 L 148.2143 10.000012 C 161.46951 10.000012 172.214302 20.744804 172.214302 34.000013 L 172.214302 71.156266 C 172.214302 84.411475 161.46951 95.156267 148.2143 95.156267 L 91.745547 95.156267 C 90.79763 95.156267 90.032005 95.921892 90.032005 96.869809 L 90.032005 98.578143 " stroke="#8c52ff" stroke-width="20" stroke-opacity="1" stroke-miterlimit="4"/><g clip-path="url(#d576036b76)"><g clip-path="url(#ba3afa85e0)"><path fill="#000000" d="M 214.683594 192.6875 L 233.398438 184.550781 L 244.171875 209.335938 L 225.457031 217.472656 Z M 214.683594 192.6875 " fill-opacity="1" fill-rule="nonzero"/></g></g><g clip-path="url(#d34d241c88)"><g clip-path="url(#9fe4f068fb)"><path fill="#000000" d="M 147.160156 126.664062 L 165.875 118.527344 L 176.648438 143.3125 L 157.929688 151.449219 Z M 147.160156 126.664062 " fill-opacity="1" fill-rule="nonzero"/></g></g></svg>